<?xml version="1.0" encoding="UTF-8" standalone="no"?>
<!-- Created with Inkscape (http://www.inkscape.org/) -->

<svg
   version="1.1"
   id="svg2"
   xml:space="preserve"
   width="1033.4574"
   height="462.14786"
   viewBox="0 0 1033.4574 462.14786"
   sodipodi:docname="workflow1.svg"
   inkscape:version="1.1.2 (08b2f3d93c, 2022-04-05)"
   xmlns:inkscape="http://www.inkscape.org/namespaces/inkscape"
   xmlns:sodipodi="http://sodipodi.sourceforge.net/DTD/sodipodi-0.dtd"
   xmlns:xlink="http://www.w3.org/1999/xlink"
   xmlns="http://www.w3.org/2000/svg"
   xmlns:svg="http://www.w3.org/2000/svg"><defs
     id="defs6"><radialGradient
       fx="53.289001"
       fy="83.386497"
       cx="53.289001"
       cy="83.386497"
       r="38.467152"
       gradientUnits="userSpaceOnUse"
       gradientTransform="matrix(1.482333,0.00949773,-0.00842949,1.315616,480.45296,75.418684)"
       spreadMethod="pad"
       id="radialGradient20"><stop
         style="stop-opacity:1;stop-color:#000000"
         offset="0"
         id="stop16" /><stop
         style="stop-opacity:1;stop-color:#666666"
         offset="1"
         id="stop18" /></radialGradient><radialGradient
       fx="53.289001"
       fy="83.386497"
       cx="53.289001"
       cy="83.386497"
       r="38.467152"
       gradientUnits="userSpaceOnUse"
       gradientTransform="matrix(1.482333,0.00949773,-0.00842949,1.315616,120.56951,75.418684)"
       spreadMethod="pad"
       id="radialGradient74"><stop
         style="stop-opacity:1;stop-color:#000000"
         offset="0"
         id="stop70" /><stop
         style="stop-opacity:1;stop-color:#666666"
         offset="1"
         id="stop72" /></radialGradient><clipPath
       clipPathUnits="userSpaceOnUse"
       id="clipPath84"><path
         d="m 176.359,163.129 h 45 v 45 h -45 z"
         id="path82" /></clipPath><mask
       maskUnits="userSpaceOnUse"
       x="0"
       y="0"
       width="1"
       height="1"
       id="mask88"><image
         width="1"
         height="1"
         preserveAspectRatio="none"
         xlink:href="../../../workflow_img0.png"
         id="image90" /></mask><radialGradient
       fx="53.289001"
       fy="83.386497"
       cx="53.289001"
       cy="83.386497"
       r="38.467152"
       gradientUnits="userSpaceOnUse"
       gradientTransform="matrix(1.482333,0.00949773,-0.00842949,1.315616,245.01966,-52.587198)"
       spreadMethod="pad"
       id="radialGradient104"><stop
         style="stop-opacity:1;stop-color:#000000"
         offset="0"
         id="stop100" /><stop
         style="stop-opacity:1;stop-color:#666666"
         offset="1"
         id="stop102" /></radialGradient><clipPath
       clipPathUnits="userSpaceOnUse"
       id="clipPath114"><path
         d="m 291.934,25.766 h 62.754 v 63.711 h -62.754 z"
         id="path112" /></clipPath><mask
       maskUnits="userSpaceOnUse"
       x="0"
       y="0"
       width="1"
       height="1"
       id="mask118"><image
         width="0.98496241"
         height="1"
         preserveAspectRatio="none"
         xlink:href="../../../workflow_img2.png"
         id="image120" /></mask><radialGradient
       fx="53.289001"
       fy="83.386497"
       cx="53.289001"
       cy="83.386497"
       r="38.467152"
       gradientUnits="userSpaceOnUse"
       gradientTransform="matrix(1.482333,0.00949773,-0.00842949,1.315616,-39.166561,75.418679)"
       spreadMethod="pad"
       id="radialGradient192"><stop
         style="stop-opacity:1;stop-color:#000000"
         offset="0"
         id="stop188" /><stop
         style="stop-opacity:1;stop-color:#666666"
         offset="1"
         id="stop190" /></radialGradient><radialGradient
       fx="53.289001"
       fy="83.386497"
       cx="53.289001"
       cy="83.386497"
       r="38.467152"
       gradientUnits="userSpaceOnUse"
       gradientTransform="matrix(1.482333,0.00949773,-0.00842949,1.315616,331.06459,75.418683)"
       spreadMethod="pad"
       id="radialGradient212"><stop
         style="stop-opacity:1;stop-color:#000000"
         offset="0"
         id="stop208" /><stop
         style="stop-opacity:1;stop-color:#666666"
         offset="1"
         id="stop210" /></radialGradient><radialGradient
       fx="53.289001"
       fy="83.386497"
       cx="53.289001"
       cy="83.386497"
       r="38.467152"
       gradientUnits="userSpaceOnUse"
       gradientTransform="matrix(0.884083,0.00565394,-0.00502746,0.783178,324.35073,248.43998)"
       spreadMethod="pad"
       id="radialGradient228"><stop
         style="stop-opacity:1;stop-color:#000000"
         offset="0"
         id="stop224" /><stop
         style="stop-opacity:1;stop-color:#666666"
         offset="1"
         id="stop226" /></radialGradient><radialGradient
       fx="53.289001"
       fy="83.386497"
       cx="53.289001"
       cy="83.386497"
       r="38.467152"
       gradientUnits="userSpaceOnUse"
       gradientTransform="matrix(0.884083,0.00565394,-0.00502746,0.783178,408.50607,248.43998)"
       spreadMethod="pad"
       id="radialGradient244"><stop
         style="stop-opacity:1;stop-color:#000000"
         offset="0"
         id="stop240" /><stop
         style="stop-opacity:1;stop-color:#666666"
         offset="1"
         id="stop242" /></radialGradient><radialGradient
       fx="53.289001"
       fy="83.386497"
       cx="53.289001"
       cy="83.386497"
       r="38.467152"
       gradientUnits="userSpaceOnUse"
       gradientTransform="matrix(1.482333,0.00949773,-0.00842949,1.315616,653.1989,75.418684)"
       spreadMethod="pad"
       id="radialGradient260"><stop
         style="stop-opacity:1;stop-color:#000000"
         offset="0"
         id="stop256" /><stop
         style="stop-opacity:1;stop-color:#666666"
         offset="1"
         id="stop258" /></radialGradient><clipPath
       clipPathUnits="userSpaceOnUse"
       id="clipPath482"><path
         d="m 386.855,163.129 h 45 v 45 h -45 z"
         id="path480" /></clipPath><mask
       maskUnits="userSpaceOnUse"
       x="0"
       y="0"
       width="1"
       height="1"
       id="mask486"><image
         width="1"
         height="1"
         preserveAspectRatio="none"
         xlink:href="../../../workflow_img4.png"
         id="image488" /></mask><clipPath
       clipPathUnits="userSpaceOnUse"
       id="clipPath498"><path
         d="m 536.242,163.129 h 45 v 45 h -45 z"
         id="path496" /></clipPath><mask
       maskUnits="userSpaceOnUse"
       x="0"
       y="0"
       width="1"
       height="1"
       id="mask502"><image
         width="1"
         height="1"
         preserveAspectRatio="none"
         xlink:href="../../../workflow_img6.png"
         id="image504" /></mask><linearGradient
       x1="512.39044"
       y1="193.58427"
       x2="512.61346"
       y2="181.95067"
       gradientUnits="userSpaceOnUse"
       gradientTransform="translate(27.464197,121.43704)"
       spreadMethod="pad"
       id="linearGradient518"><stop
         style="stop-opacity:1;stop-color:#2cab28"
         offset="0"
         id="stop514" /><stop
         style="stop-opacity:1;stop-color:#0515fe"
         offset="1"
         id="stop516" /></linearGradient><clipPath
       clipPathUnits="userSpaceOnUse"
       id="clipPath528"><path
         d="M 0,0 H 776 V 347 H 0 Z"
         id="path526" /></clipPath><clipPath
       clipPathUnits="userSpaceOnUse"
       id="clipPath546"><path
         d="M 0,0 H 776 V 347 H 0 Z"
         id="path544" /></clipPath></defs><sodipodi:namedview
     id="namedview4"
     pagecolor="#ffffff"
     bordercolor="#666666"
     borderopacity="1.0"
     inkscape:pageshadow="2"
     inkscape:pageopacity="0.0"
     inkscape:pagecheckerboard="0"
     showgrid="false"
     inkscape:zoom="1.2946833"
     inkscape:cx="516.3425"
     inkscape:cy="231.33071"
     inkscape:window-width="2560"
     inkscape:window-height="1376"
     inkscape:window-x="0"
     inkscape:window-y="27"
     inkscape:window-maximized="1"
     inkscape:current-layer="g8" /><g
     id="g8"
     inkscape:groupmode="layer"
     inkscape:label="workflow"
     transform="matrix(1.3333333,0,0,1.3333333,0,1.3553697e-5)"><path
       d="m 521.738,148.559 h 74.008 V 222.7 h -74.008 z"
       style="fill:none;stroke:url(#radialGradient20);stroke-width:1.44825;stroke-linecap:round;stroke-linejoin:round;stroke-miterlimit:4;stroke-dasharray:none;stroke-opacity:1"
       id="path22" /><text
       style="font-variant:normal;font-weight:normal;font-size:14px;font-family:'DejaVu Math TeX Gyre';-inkscape-font-specification:DejaVuMathTeXGyre-Regular;writing-mode:lr-tb;fill:#000000;fill-opacity:1;fill-rule:nonzero;stroke:none"
       id="text32"
       x="14.062954"
       y="120.31436"><tspan
         x="14.062954 23.470955 31.366955 36.980953 45.996956 54.424953"
         y="120.31436"
         sodipodi:role="line"
         id="tspan24">Python</tspan><tspan
         x="-0.70000356 7.6439958 16.603996 25.563997 30.029997 34.495998 42.335999 50.679996 56.293995 60.759995 69.187996"
         y="137.81436"
         sodipodi:role="line"
         id="tspan26">application</tspan><tspan
         x="540.04614 549.37012 556.06213 564.40613 572.24615"
         y="119.99936"
         sodipodi:role="line"
         id="tspan28">Trace</tspan><tspan
         x="516.37219 526.48016 535.44019 544.40015 551.09216 559.36615 568.32617 576.67017 582.28418 586.75018 595.17816"
         y="137.49936"
         sodipodi:role="line"
         id="tspan30">Aggregation</tspan></text><path
       d="M 19.848,289.35901 H 245 v 36.89085 H 19.848 Z"
       style="fill:none;stroke:#000000;stroke-width:0.427872;stroke-linecap:round;stroke-linejoin:miter;stroke-miterlimit:4;stroke-dasharray:none;stroke-opacity:1"
       id="path36" /><text
       style="font-variant:normal;font-weight:normal;font-size:12px;font-family:'DejaVu Math TeX Gyre';-inkscape-font-specification:DejaVuMathTeXGyre-Regular;writing-mode:lr-tb;fill:#000000;fill-opacity:1;fill-rule:nonzero;stroke:none"
       id="text40"
       x="44.135525"
       y="311.3804"><tspan
         x="44.135525 55.511524 62.735523 70.415527 74.219521 78.659523 86.38752 94.115524 97.919525 107.37553 111.17952 121.43952 127.17552 134.32753 142.00752 149.68753 156.77953 162.51552 167.60353 178.97952 186.20352 193.88353 197.68753 202.12753 209.85553 217.58353"
         y="311.3804"
         sodipodi:role="line"
         id="tspan38">mod.fun = wrapper(mod.fun)</tspan></text><path
       d="m 337.77,279.34 h 149.535 v 67.043 H 337.77 Z"
       style="fill:none;stroke:#000000;stroke-width:0.459892;stroke-linecap:round;stroke-linejoin:miter;stroke-miterlimit:4;stroke-dasharray:1.83955, 3.67911;stroke-dashoffset:0;stroke-opacity:1"
       id="path44" /><text
       style="font-variant:normal;font-weight:normal;font-size:14px;font-family:'DejaVu Math TeX Gyre';-inkscape-font-specification:DejaVuMathTeXGyre-Regular;writing-mode:lr-tb;fill:#000000;fill-opacity:1;fill-rule:nonzero;stroke:none"
       id="text56"
       x="142.97977"
       y="130.25436"><tspan
         x="142.97977 148.50977 157.52576 164.70776 170.32176 177.01376 186.02975 199.30176 207.57576 216.59177 222.20576 230.54976 236.16376 240.62976 249.05777"
         y="130.25436"
         sodipodi:role="line"
         id="tspan46">Instrumentation</tspan><tspan
         x="270.82321 283.07318 291.50119 295.96719 303.1492 311.42319 315.86121 320.32721 329.3432 333.6832 341.95718 349.79718 355.41119 359.8772 368.30521"
         y="13.303997"
         sodipodi:role="line"
         id="tspan48">Noise injection</tspan><tspan
         x="379.2258 393.53381 402.5498 407.01581 412.62982 417.09583 426.05582 430.52182"
         y="108.37225"
         sodipodi:role="line"
         id="tspan50">Multiple</tspan><tspan
         x="142.97977"
         sodipodi:role="line"
         id="tspan52"
         y="126.32353">                                                  Independent</tspan><tspan
         x="370.05582 380.26181 388.1438 396.41782 404.25781 413.2738 418.88782 423.35382 431.78183 440.79782"
         y="143.37225"
         sodipodi:role="line"
         id="tspan54">Executions</tspan></text><path
       d="m 316.262,94.375 c -1.278,47.367 25.472,69.77 44.871,74.504"
       style="fill:none;stroke:#000000;stroke-width:0.631801;stroke-linecap:butt;stroke-linejoin:miter;stroke-miterlimit:4;stroke-dasharray:3.79081, 3.79081;stroke-dashoffset:0;stroke-opacity:1"
       id="path60" /><path
       d="m 354.99175,167.3794 -3.05038,1.85909 9.19113,-0.36001 -7.99535,-4.55048 z"
       style="fill:#000000;fill-opacity:1;fill-rule:evenodd;stroke:#000000;stroke-width:0.673921;stroke-linecap:butt;stroke-linejoin:miter;stroke-miterlimit:4;stroke-dasharray:none;stroke-opacity:1"
       id="path64" /><path
       d="m 161.855,148.559 h 74.004 V 222.7 h -74.004 z"
       style="fill:none;stroke:url(#radialGradient74);stroke-width:1.44825;stroke-linecap:round;stroke-linejoin:round;stroke-miterlimit:4;stroke-dasharray:none;stroke-opacity:1"
       id="path76" /><g
       id="g78"><g
         id="g80"
         clip-path="url(#clipPath84)"><g
           id="g86"
           transform="matrix(44.999999,0,0,-44.999999,176.35866,208.12942)"><image
             width="1"
             height="1"
             preserveAspectRatio="none"
             transform="matrix(1,0,0,-1,0,1)"
             xlink:href="../../../workflow_img1.png"
             mask="url(#mask88)"
             id="image92" /></g></g></g><g
       id="g94"><g
         id="g96"><g
           id="g98"><path
             d="m 286.309,20.551 h 74.004 v 74.145 h -74.004 z"
             style="fill:none;stroke:url(#radialGradient104);stroke-width:1.44825;stroke-linecap:round;stroke-linejoin:round;stroke-miterlimit:4;stroke-dasharray:none;stroke-opacity:1"
             id="path106" /></g></g></g><g
       id="g108"><g
         id="g110"
         clip-path="url(#clipPath114)"><g
           id="g116"
           transform="matrix(62.754176,0,0,-63.712256,291.93173,89.479668)"><image
             width="0.98496241"
             height="1"
             preserveAspectRatio="none"
             transform="matrix(1,0,0,-1,0,1)"
             xlink:href="../../../workflow_img3.png"
             mask="url(#mask118)"
             id="image122" /></g><text
           transform="translate(304.66085,61.389543)"
           style="font-variant:normal;font-weight:normal;font-size:14px;font-family:'DejaVu Math TeX Gyre';-inkscape-font-specification:DejaVuMathTeXGyre-Regular;writing-mode:lr-tb;fill:#ffffff;fill-opacity:1;fill-rule:nonzero;stroke:none"
           id="text126"><tspan
             x="0 5.1799998 14.196 21.559999 28.924"
             y="0"
             sodipodi:role="line"
             id="tspan124">fuzzy</tspan></text></g></g><g
       id="g128"><text
         transform="translate(684.20529,130.42236)"
         style="font-variant:normal;font-weight:normal;font-size:14px;font-family:'DejaVu Math TeX Gyre';-inkscape-font-specification:DejaVuMathTeXGyre-Regular;writing-mode:lr-tb;fill:#000000;fill-opacity:1;fill-rule:nonzero;stroke:none"
         id="text134"><tspan
           x="0 10.108 14.574 21.756001 30.771999 39.116001 43.582001 48.048 55.411999 63.756001 69.370003 73.835999 82.264"
           y="0"
           sodipodi:role="line"
           id="tspan130">Visualization</tspan><tspan
           x="-279.73471 -275.29672 -270.8587"
           y="184.33942"
           sodipodi:role="line"
           id="tspan132">...</tspan></text><g
         id="g136"><path
           d="m 81.664,185.629 h 66.43"
           style="fill:none;stroke:#000000;stroke-width:0.75;stroke-linecap:butt;stroke-linejoin:miter;stroke-miterlimit:4;stroke-dasharray:none;stroke-opacity:1"
           id="path138" /></g><g
         id="g140"
         transform="scale(-1)"><path
           d="m -140.594,-185.629 3,-3 -10.5,3 10.5,3 z"
           style="fill:#000000;fill-opacity:1;fill-rule:evenodd;stroke:#000000;stroke-width:0.8;stroke-linecap:butt;stroke-linejoin:miter;stroke-miterlimit:4;stroke-dasharray:none;stroke-opacity:1"
           id="path142" /></g><g
         id="g144"><path
           d="m 246.484,185.629 118.411,0.07"
           style="fill:none;stroke:#000000;stroke-width:0.75;stroke-linecap:butt;stroke-linejoin:miter;stroke-miterlimit:4;stroke-dasharray:none;stroke-opacity:1"
           id="path146" /></g><g
         id="g148"
         transform="rotate(-179.96562)"><path
           d="m -357.506,-185.481 3.002,-3.002 -10.502,3.003 10.502,2.997 z"
           style="fill:#000000;fill-opacity:1;fill-rule:evenodd;stroke:#000000;stroke-width:0.8;stroke-linecap:butt;stroke-linejoin:miter;stroke-miterlimit:4;stroke-dasharray:none;stroke-opacity:1"
           id="path150" /></g><g
         id="g152"><path
           d="m 560.234,224.312 v 61.973"
           style="fill:none;stroke:#000000;stroke-width:0.75;stroke-linecap:round;stroke-linejoin:miter;stroke-miterlimit:4;stroke-dasharray:none;stroke-opacity:1"
           id="path154" /></g><g
         id="g156"
         transform="rotate(-90)"><path
           d="m -278.785,560.234 3,-3 -10.5,3 10.5,3 z"
           style="fill:#000000;fill-opacity:1;fill-rule:evenodd;stroke:#000000;stroke-width:0.8;stroke-linecap:butt;stroke-linejoin:miter;stroke-miterlimit:4;stroke-dasharray:none;stroke-opacity:1"
           id="path158" /></g><g
         id="g160"><path
           d="m 601.285,185.629 h 84.664"
           style="fill:none;stroke:#000000;stroke-width:0.75;stroke-linecap:round;stroke-linejoin:miter;stroke-miterlimit:4;stroke-dasharray:4.5, 4.5;stroke-dashoffset:0;stroke-opacity:1"
           id="path162" /></g><g
         id="g164"
         transform="scale(-1)"><path
           d="m -678.449,-185.629 3,-3 -10.5,3 10.5,3 z"
           style="fill:#000000;fill-opacity:1;fill-rule:evenodd;stroke:#000000;stroke-width:0.8;stroke-linecap:butt;stroke-linejoin:miter;stroke-miterlimit:4;stroke-dasharray:none;stroke-opacity:1"
           id="path166" /></g><g
         id="g168"><path
           d="m 457.445,185.512 57.297,0.117"
           style="fill:none;stroke:#000000;stroke-width:0.75;stroke-linecap:butt;stroke-linejoin:miter;stroke-miterlimit:4;stroke-dasharray:4.5, 4.5;stroke-dashoffset:0;stroke-opacity:1"
           id="path170" /></g><g
         id="g172"
         transform="matrix(-1,-0.00204636,0.00204636,-1,0,0)"><path
           d="m -507.62,-184.575 2.998,-3.002 -10.498,3.002 10.498,2.998 z"
           style="fill:#000000;fill-opacity:1;fill-rule:evenodd;stroke:#000000;stroke-width:0.799998;stroke-linecap:butt;stroke-linejoin:miter;stroke-miterlimit:4;stroke-dasharray:none;stroke-opacity:1"
           id="path174" /></g><g
         id="g176"><path
           d="m 154.355,222.699 c -42.667,6.535 -40.328,33.953 -41.074,59.942"
           style="fill:none;stroke:#000000;stroke-width:0.75;stroke-linecap:butt;stroke-linejoin:miter;stroke-miterlimit:4;stroke-dasharray:4.5, 4.5;stroke-dashoffset:0;stroke-opacity:1"
           id="path178" /></g><g
         id="g180"
         transform="matrix(0.0286774,-1,1,0.0286774,0,0)"><path
           d="m -271.666,121.287 3,-3 -10.496,3 10.492,3 z"
           style="fill:#000000;fill-opacity:1;fill-rule:evenodd;stroke:#000000;stroke-width:0.799671;stroke-linecap:butt;stroke-linejoin:miter;stroke-miterlimit:4;stroke-dasharray:none;stroke-opacity:1"
           id="path182" /></g><g
         id="g184"><g
           id="g186"><path
             d="M 2.121,148.559 H 76.125 V 222.7 H 2.121 Z"
             style="fill:none;stroke:url(#radialGradient192);stroke-width:1.44825;stroke-linecap:round;stroke-linejoin:round;stroke-miterlimit:4;stroke-dasharray:none;stroke-opacity:1"
             id="path194" /></g></g><text
         transform="translate(48.680437,214.21394)"
         style="font-variant:normal;font-weight:normal;font-size:14px;font-family:'DejaVu Math TeX Gyre';-inkscape-font-specification:DejaVuMathTeXGyre-Regular;writing-mode:lr-tb;fill:#5a5a5a;fill-opacity:1;fill-rule:nonzero;stroke:none"
         id="text198"><tspan
           x="0 4.4380002 13.398"
           y="0"
           sodipodi:role="line"
           id="tspan196">.py</tspan></text><path
         d="m 38.594,163.129 c -5.199,0.027 -10.242,1.601 -10.324,4.933 v 5.231 h 10.89 v 1.551 H 23.52 c -9.641,0.101 -8.739,22.597 0,22.019 l 3.316,-0.019 v -5.672 c 0.402,-3.977 2.453,-5.973 6.027,-6.145 l 11.172,-0.004 c 3.66,-0.335 5.809,-2.074 5.914,-5.703 l 0.028,-11.261 c -0.122,-3.231 -5.844,-4.957 -11.383,-4.93 z m -5.614,3.305 c 1.243,0 2.25,0.964 2.254,2.156 0,1.191 -1.011,2.156 -2.254,2.156 -1.242,-0.004 -2.25,-0.969 -2.25,-2.156 0,-1.192 1.008,-2.156 2.25,-2.156 z"
         style="fill:#4872a6;fill-opacity:0.985427;fill-rule:evenodd;stroke:none"
         id="path200" /><path
         d="m 39.648,208.129 c 5.204,-0.027 10.243,-1.602 10.329,-4.93 v -5.234 H 39.082 v -1.547 h 15.641 c 9.644,-0.102 8.742,-22.598 0,-22.02 l -3.313,0.016 -0.004,5.672 c -0.398,3.976 -2.449,5.976 -6.023,6.144 l -11.172,0.004 c -3.66,0.336 -5.809,2.075 -5.918,5.704 l -0.023,11.261 c 0.121,3.231 5.843,4.957 11.378,4.93 z m 5.618,-3.305 c -1.246,0 -2.254,-0.965 -2.254,-2.152 0,-1.192 1.008,-2.156 2.254,-2.156 1.242,0 2.25,0.964 2.25,2.156 0,1.187 -1.008,2.152 -2.25,2.152 z"
         style="fill:#f7cf3f;fill-opacity:1;fill-rule:evenodd;stroke:none"
         id="path202" /><g
         id="g204"><g
           id="g206"><path
             d="m 372.352,148.559 h 74.004 V 222.7 h -74.004 z"
             style="fill:none;stroke:url(#radialGradient212);stroke-width:1.44825;stroke-linecap:round;stroke-linejoin:round;stroke-miterlimit:4;stroke-dasharray:none;stroke-opacity:1"
             id="path214" /></g></g><text
         transform="translate(357.4214,317.91177)"
         style="font-variant:normal;font-weight:normal;font-size:12px;font-family:'DejaVu Math TeX Gyre';-inkscape-font-specification:DejaVuMathTeXGyre-Regular;writing-mode:lr-tb;fill:#000000;fill-opacity:1;fill-rule:nonzero;stroke:none"
         id="text218"><tspan
           x="0 3.8039999 11.484 18.743999"
           y="0"
           sodipodi:role="line"
           id="tspan216">.pkl</tspan></text><g
         id="g220"><g
           id="g222"><path
             d="m 348.977,291.98 h 44.137 v 44.137 h -44.137 z"
             style="fill:none;stroke:url(#radialGradient228);stroke-width:0.862943;stroke-linecap:round;stroke-linejoin:round;stroke-miterlimit:4;stroke-dasharray:none;stroke-opacity:1"
             id="path230" /></g></g><text
         transform="translate(441.57674,317.91177)"
         style="font-variant:normal;font-weight:normal;font-size:12px;font-family:'DejaVu Math TeX Gyre';-inkscape-font-specification:DejaVuMathTeXGyre-Regular;writing-mode:lr-tb;fill:#000000;fill-opacity:1;fill-rule:nonzero;stroke:none"
         id="text234"><tspan
           x="0 3.8039999 11.484 18.743999"
           y="0"
           sodipodi:role="line"
           id="tspan232">.pkl</tspan></text><g
         id="g236"><g
           id="g238"><path
             d="m 433.129,291.98 h 44.137 v 44.137 h -44.137 z"
             style="fill:none;stroke:url(#radialGradient244);stroke-width:0.862943;stroke-linecap:round;stroke-linejoin:round;stroke-miterlimit:4;stroke-dasharray:none;stroke-opacity:1"
             id="path246" /></g></g><g
         id="g248"
         transform="scale(1,0.848921)"><path
           d="m 535.781,340.994 h 44.391 v 52.461 h -44.391 z"
           style="fill:none;stroke:#000000;stroke-width:0.601587;stroke-linecap:round;stroke-linejoin:miter;stroke-miterlimit:4;stroke-dasharray:none;stroke-opacity:1"
           id="path250" /></g><g
         id="g252"><g
           id="g254"><path
             d="m 694.484,148.559 h 74.004 V 222.7 h -74.004 z"
             style="fill:none;stroke:url(#radialGradient260);stroke-width:1.44825;stroke-linecap:round;stroke-linejoin:round;stroke-miterlimit:4;stroke-dasharray:none;stroke-opacity:1"
             id="path262" /></g></g><g
         id="g264"><path
           d="m 712.492,163.129 v 45"
           style="fill:none;stroke:#3f4f75;stroke-width:1.29848;stroke-linecap:butt;stroke-linejoin:miter;stroke-miterlimit:4;stroke-dasharray:none;stroke-opacity:1"
           id="path266" /></g><g
         id="g268"><path
           d="m 753.988,204.609 h -45"
           style="fill:none;stroke:#3f4f75;stroke-width:1.29848;stroke-linecap:butt;stroke-linejoin:miter;stroke-miterlimit:4;stroke-dasharray:none;stroke-opacity:1"
           id="path270" /></g><g
         id="g272"><path
           d="m 716.75,194.695 5.543,-5.488"
           style="fill:none;stroke:#3f4f75;stroke-width:1.29848;stroke-linecap:butt;stroke-linejoin:miter;stroke-miterlimit:4;stroke-dasharray:none;stroke-opacity:1"
           id="path274" /></g><g
         id="g276"><path
           d="m 725.922,185.629 2.781,-2.777 9.957,-0.012 13.16,-13.156"
           style="fill:none;stroke:#3f4f75;stroke-width:1.29848;stroke-linecap:butt;stroke-linejoin:miter;stroke-miterlimit:4;stroke-dasharray:none;stroke-opacity:1"
           id="path278" /></g><g
         id="g280"><path
           d="m 751.82,172.867 v -3.183"
           style="fill:none;stroke:#3f4f75;stroke-width:1.29848;stroke-linecap:square;stroke-linejoin:miter;stroke-miterlimit:4;stroke-dasharray:none;stroke-opacity:1"
           id="path282" /></g><g
         id="g284"><path
           d="m 751.82,169.684 h -3.183"
           style="fill:none;stroke:#3f4f75;stroke-width:1.29848;stroke-linecap:square;stroke-linejoin:miter;stroke-miterlimit:4;stroke-dasharray:none;stroke-opacity:1"
           id="path286" /></g><g
         id="g288"
         transform="rotate(90)"><path
           d="m 179.445,-745.641 6.118,-6.289"
           style="fill:none;stroke:#3f4f75;stroke-width:1.29848;stroke-linecap:butt;stroke-linejoin:miter;stroke-miterlimit:4;stroke-dasharray:none;stroke-opacity:1"
           id="path290" /></g><g
         id="g292"
         transform="rotate(90)"><path
           d="m 185.563,-748.746 v -3.184"
           style="fill:none;stroke:#3f4f75;stroke-width:1.29848;stroke-linecap:square;stroke-linejoin:miter;stroke-miterlimit:4;stroke-dasharray:none;stroke-opacity:1"
           id="path294" /></g><g
         id="g296"
         transform="rotate(90)"><path
           d="m 185.563,-751.93 h -3.184"
           style="fill:none;stroke:#3f4f75;stroke-width:1.29848;stroke-linecap:square;stroke-linejoin:miter;stroke-miterlimit:4;stroke-dasharray:none;stroke-opacity:1"
           id="path298" /></g><g
         id="g300"
         transform="matrix(0.970141,1,-1,0.970141,0,0)"><path
           d="m 475.104,-291.113 -6.436,6.623 -3.586,0.1 0.045,4.934 -13.95,0.235"
           style="fill:none;stroke:#3f4f75;stroke-width:0.931973;stroke-linecap:butt;stroke-linejoin:miter;stroke-miterlimit:4;stroke-dasharray:none;stroke-opacity:1"
           id="path302" /></g><g
         id="g304"
         transform="matrix(0.970141,1,-1,0.970141,0,0)"><path
           d="m 475.105,-288.831 -0.001,-2.282"
           style="fill:none;stroke:#3f4f75;stroke-width:0.931973;stroke-linecap:square;stroke-linejoin:miter;stroke-miterlimit:4;stroke-dasharray:none;stroke-opacity:1"
           id="path306" /></g><g
         id="g308"
         transform="matrix(0.970141,1,-1,0.970141,0,0)"><path
           d="m 475.104,-291.113 -2.284,-10e-4"
           style="fill:none;stroke:#3f4f75;stroke-width:0.931973;stroke-linecap:square;stroke-linejoin:miter;stroke-miterlimit:4;stroke-dasharray:none;stroke-opacity:1"
           id="path310" /></g><g
         id="g312"><path
           d="m 716.152,170.863 h 9.125 l 4.133,4.321 4.285,-4.321 h 3.649 l 4.715,4.723"
           style="fill:none;stroke:#3f4f75;stroke-width:1.29848;stroke-linecap:butt;stroke-linejoin:miter;stroke-miterlimit:4;stroke-dasharray:none;stroke-opacity:1"
           id="path314" /></g><g
         id="g316"><path
           d="m 717.504,201.512 h 0.66 v 0.66 h -0.66 z"
           style="fill:#5a5a5a;fill-opacity:1;fill-rule:evenodd;stroke:#3f4f75;stroke-width:0.7173;stroke-linecap:butt;stroke-linejoin:miter;stroke-miterlimit:4;stroke-dasharray:none;stroke-opacity:1"
           id="path318" /></g><g
         id="g320"><path
           d="m 715.211,201.512 h 0.66 v 0.66 h -0.66 z"
           style="fill:#5a5a5a;fill-opacity:1;fill-rule:evenodd;stroke:#3f4f75;stroke-width:0.7173;stroke-linecap:butt;stroke-linejoin:miter;stroke-miterlimit:4;stroke-dasharray:none;stroke-opacity:1"
           id="path322" /></g><g
         id="g324"><path
           d="m 720.152,201.512 h 0.66 v 0.66 h -0.66 z"
           style="fill:#5a5a5a;fill-opacity:1;fill-rule:evenodd;stroke:#3f4f75;stroke-width:0.7173;stroke-linecap:butt;stroke-linejoin:miter;stroke-miterlimit:4;stroke-dasharray:none;stroke-opacity:1"
           id="path326" /></g><g
         id="g328"><path
           d="m 722.805,201.512 h 0.66 v 0.66 h -0.66 z"
           style="fill:#5a5a5a;fill-opacity:1;fill-rule:evenodd;stroke:#3f4f75;stroke-width:0.7173;stroke-linecap:butt;stroke-linejoin:miter;stroke-miterlimit:4;stroke-dasharray:none;stroke-opacity:1"
           id="path330" /></g><g
         id="g332"><path
           d="m 725.453,201.512 h 0.66 v 0.66 h -0.66 z"
           style="fill:#5a5a5a;fill-opacity:1;fill-rule:evenodd;stroke:#3f4f75;stroke-width:0.7173;stroke-linecap:butt;stroke-linejoin:miter;stroke-miterlimit:4;stroke-dasharray:none;stroke-opacity:1"
           id="path334" /></g><g
         id="g336"><path
           d="m 728.102,201.512 h 0.66 v 0.66 h -0.66 z"
           style="fill:#5a5a5a;fill-opacity:1;fill-rule:evenodd;stroke:#3f4f75;stroke-width:0.7173;stroke-linecap:butt;stroke-linejoin:miter;stroke-miterlimit:4;stroke-dasharray:none;stroke-opacity:1"
           id="path338" /></g><g
         id="g340"><path
           d="m 730.754,201.512 h 0.66 v 0.66 h -0.66 z"
           style="fill:#5a5a5a;fill-opacity:1;fill-rule:evenodd;stroke:#3f4f75;stroke-width:0.7173;stroke-linecap:butt;stroke-linejoin:miter;stroke-miterlimit:4;stroke-dasharray:none;stroke-opacity:1"
           id="path342" /></g><g
         id="g344"><path
           d="m 733.402,201.512 h 0.66 v 0.66 h -0.66 z"
           style="fill:#5a5a5a;fill-opacity:1;fill-rule:evenodd;stroke:#3f4f75;stroke-width:0.7173;stroke-linecap:butt;stroke-linejoin:miter;stroke-miterlimit:4;stroke-dasharray:none;stroke-opacity:1"
           id="path346" /></g><g
         id="g348"><path
           d="m 736.055,201.512 h 0.66 v 0.66 h -0.66 z"
           style="fill:#5a5a5a;fill-opacity:1;fill-rule:evenodd;stroke:#3f4f75;stroke-width:0.7173;stroke-linecap:butt;stroke-linejoin:miter;stroke-miterlimit:4;stroke-dasharray:none;stroke-opacity:1"
           id="path350" /></g><g
         id="g352"><path
           d="m 738.703,201.512 h 0.66 v 0.66 h -0.66 z"
           style="fill:#5a5a5a;fill-opacity:1;fill-rule:evenodd;stroke:#3f4f75;stroke-width:0.7173;stroke-linecap:butt;stroke-linejoin:miter;stroke-miterlimit:4;stroke-dasharray:none;stroke-opacity:1"
           id="path354" /></g><g
         id="g356"><path
           d="m 741.355,201.512 h 0.656 v 0.66 h -0.656 z"
           style="fill:#5a5a5a;fill-opacity:1;fill-rule:evenodd;stroke:#3f4f75;stroke-width:0.7173;stroke-linecap:butt;stroke-linejoin:miter;stroke-miterlimit:4;stroke-dasharray:none;stroke-opacity:1"
           id="path358" /></g><g
         id="g360"><path
           d="m 744.004,201.512 h 0.66 v 0.66 h -0.66 z"
           style="fill:#5a5a5a;fill-opacity:1;fill-rule:evenodd;stroke:#3f4f75;stroke-width:0.7173;stroke-linecap:butt;stroke-linejoin:miter;stroke-miterlimit:4;stroke-dasharray:none;stroke-opacity:1"
           id="path362" /></g><g
         id="g364"><path
           d="m 746.652,201.512 h 0.66 v 0.66 h -0.66 z"
           style="fill:#5a5a5a;fill-opacity:1;fill-rule:evenodd;stroke:#3f4f75;stroke-width:0.7173;stroke-linecap:butt;stroke-linejoin:miter;stroke-miterlimit:4;stroke-dasharray:none;stroke-opacity:1"
           id="path366" /></g><g
         id="g368"><path
           d="m 749.305,201.512 h 0.66 v 0.66 h -0.66 z"
           style="fill:#5a5a5a;fill-opacity:1;fill-rule:evenodd;stroke:#3f4f75;stroke-width:0.7173;stroke-linecap:butt;stroke-linejoin:miter;stroke-miterlimit:4;stroke-dasharray:none;stroke-opacity:1"
           id="path370" /></g><g
         id="g372"><path
           d="m 751.953,201.512 h 0.66 v 0.66 h -0.66 z"
           style="fill:#5a5a5a;fill-opacity:1;fill-rule:evenodd;stroke:#3f4f75;stroke-width:0.7173;stroke-linecap:butt;stroke-linejoin:miter;stroke-miterlimit:4;stroke-dasharray:none;stroke-opacity:1"
           id="path374" /></g><g
         id="g376"><path
           d="m 583.008,312.445 c 26.758,-59.14 61.469,-104.683 102.703,-109.113"
           style="fill:none;stroke:#000000;stroke-width:0.75;stroke-linecap:round;stroke-linejoin:miter;stroke-miterlimit:4;stroke-dasharray:none;stroke-opacity:1"
           id="path378" /></g><g
         id="g380"
         transform="matrix(-1,0.107431,-0.107431,-1,0,0)"><path
           d="m -648.835,-273.838 2.981,-2.984 -10.438,2.984 10.437,2.981 z"
           style="fill:#000000;fill-opacity:1;fill-rule:evenodd;stroke:#000000;stroke-width:0.795423;stroke-linecap:butt;stroke-linejoin:miter;stroke-miterlimit:4;stroke-dasharray:none;stroke-opacity:1"
           id="path382" /></g><g
         id="g384"><path
           d="m 497.34,313.781 c 27.824,-16.519 34.039,-35.59 46.348,-85.855"
           style="fill:none;stroke:#000000;stroke-width:0.75;stroke-linecap:round;stroke-linejoin:miter;stroke-miterlimit:4;stroke-dasharray:none;stroke-opacity:1"
           id="path386" /></g><g
         id="g388"
         transform="matrix(-0.244867,1,-1,-0.244867,0,0)"><path
           d="m 96.718,-565.585 2.914,-2.917 -10.2,2.915 10.198,2.914 z"
           style="fill:#000000;fill-opacity:1;fill-rule:evenodd;stroke:#000000;stroke-width:0.777043;stroke-linecap:butt;stroke-linejoin:miter;stroke-miterlimit:4;stroke-dasharray:none;stroke-opacity:1"
           id="path390" /></g><g
         id="g392"><path
           d="m 413.988,225.961 38.395,55.086"
           style="fill:none;stroke:#000000;stroke-width:0.75;stroke-linecap:round;stroke-linejoin:miter;stroke-miterlimit:4;stroke-dasharray:none;stroke-opacity:1"
           id="path394" /></g><g
         id="g396"
         transform="matrix(-0.696942,-1,1,-0.696942,0,0)"><path
           d="m -395.218,172.65 2.459,-2.463 -8.614,2.462 8.616,2.462 z"
           style="fill:#000000;fill-opacity:1;fill-rule:evenodd;stroke:#000000;stroke-width:0.656327;stroke-linecap:butt;stroke-linejoin:miter;stroke-miterlimit:4;stroke-dasharray:none;stroke-opacity:1"
           id="path398" /></g><g
         id="g400"><path
           d="m 408.73,226.152 -38.394,55.086"
           style="fill:none;stroke:#000000;stroke-width:0.75;stroke-linecap:round;stroke-linejoin:miter;stroke-miterlimit:4;stroke-dasharray:none;stroke-opacity:1"
           id="path402" /></g><g
         id="g404"
         transform="matrix(0.696942,-1,1,0.696942,0,0)"><path
           d="m -9.419,381.189 2.461,-2.461 -8.614,2.461 8.614,2.461 z"
           style="fill:#000000;fill-opacity:1;fill-rule:evenodd;stroke:#000000;stroke-width:0.656327;stroke-linecap:butt;stroke-linejoin:miter;stroke-miterlimit:4;stroke-dasharray:none;stroke-opacity:1"
           id="path406" /></g><g
         id="g408"><path
           d="m 699.91,229.215 h 18.375 c 1.285,0 2.324,1.035 2.324,2.32 v 17.774 c 0,1.285 -1.039,2.32 -2.324,2.32 H 699.91 c -1.289,0 -2.324,-1.035 -2.324,-2.32 v -17.774 c 0,-1.285 1.035,-2.32 2.324,-2.32 z"
           style="fill:#3f4f75;fill-opacity:1;fill-rule:evenodd;stroke:#3f4f75;stroke-width:0.0754905;stroke-linecap:round;stroke-linejoin:miter;stroke-miterlimit:4;stroke-dasharray:none;stroke-opacity:1"
           id="path410" /></g><g
         id="g412"><path
           d="m 703.145,242.406 v 4.309"
           style="fill:none;stroke:#ffffff;stroke-width:1.95;stroke-linecap:round;stroke-linejoin:miter;stroke-miterlimit:4;stroke-dasharray:none;stroke-opacity:1"
           id="path414" /></g><g
         id="g416"><path
           d="m 707.195,238.453 v 8.262"
           style="fill:none;stroke:#ffffff;stroke-width:1.95;stroke-linecap:round;stroke-linejoin:miter;stroke-miterlimit:4;stroke-dasharray:none;stroke-opacity:1"
           id="path418" /></g><g
         id="g420"><path
           d="m 715.195,238.453 v 8.262"
           style="fill:none;stroke:#ffffff;stroke-width:1.95;stroke-linecap:round;stroke-linejoin:miter;stroke-miterlimit:4;stroke-dasharray:none;stroke-opacity:1"
           id="path422" /></g><g
         id="g424"><path
           d="m 711.254,242.406 v 4.309"
           style="fill:none;stroke:#ffffff;stroke-width:1.95;stroke-linecap:round;stroke-linejoin:miter;stroke-miterlimit:4;stroke-dasharray:none;stroke-opacity:1"
           id="path426" /></g><path
         d="m 704.121,238.504 c 0,0.523 -0.433,0.953 -0.965,0.957 -0.535,0 -0.972,-0.422 -0.98,-0.945 -0.008,-0.528 0.418,-0.957 0.953,-0.969 0.535,-0.012 0.976,0.406 0.992,0.933"
         style="fill:#80cfbe;fill-opacity:1;fill-rule:evenodd;stroke:none"
         id="path428" /><path
         d="m 704.121,234.691 c 0,0.528 -0.433,0.954 -0.965,0.957 -0.535,0.004 -0.972,-0.418 -0.98,-0.945 -0.008,-0.523 0.418,-0.957 0.953,-0.969 0.535,-0.007 0.976,0.407 0.992,0.934"
         style="fill:#80cfbe;fill-opacity:1;fill-rule:evenodd;stroke:none"
         id="path430" /><path
         d="m 708.168,234.691 c 0,0.528 -0.43,0.954 -0.965,0.957 -0.535,0.004 -0.973,-0.418 -0.98,-0.945 -0.004,-0.523 0.422,-0.957 0.957,-0.969 0.535,-0.007 0.976,0.407 0.988,0.934"
         style="fill:#80cfbe;fill-opacity:1;fill-rule:evenodd;stroke:none"
         id="path432" /><path
         d="m 712.227,234.691 c 0,0.528 -0.43,0.954 -0.965,0.957 -0.535,0.004 -0.973,-0.418 -0.981,-0.945 -0.004,-0.523 0.422,-0.957 0.957,-0.969 0.532,-0.007 0.977,0.407 0.989,0.934"
         style="fill:#80cfbe;fill-opacity:1;fill-rule:evenodd;stroke:none"
         id="path434" /><path
         d="m 712.227,238.504 c 0,0.523 -0.43,0.953 -0.965,0.957 -0.535,0 -0.973,-0.422 -0.981,-0.945 -0.004,-0.528 0.422,-0.957 0.957,-0.969 0.532,-0.012 0.977,0.406 0.989,0.933"
         style="fill:#80cfbe;fill-opacity:1;fill-rule:evenodd;stroke:none"
         id="path436" /><path
         d="m 716.168,234.691 c 0,0.528 -0.434,0.954 -0.965,0.957 -0.535,0.004 -0.973,-0.418 -0.98,-0.945 -0.008,-0.523 0.418,-0.957 0.953,-0.969 0.535,-0.007 0.976,0.407 0.992,0.934"
         style="fill:#80cfbe;fill-opacity:1;fill-rule:evenodd;stroke:none"
         id="path438" /><g
         id="g440"><path
           d="m 725.465,237.539 v 9.531"
           style="fill:none;stroke:#3f4f75;stroke-width:1.725;stroke-linecap:round;stroke-linejoin:round;stroke-miterlimit:4;stroke-dasharray:none;stroke-opacity:1"
           id="path442" /></g><g
         id="g444"><path
           d="m 734.68,235.68 v 9.539"
           style="fill:none;stroke:#3f4f75;stroke-width:1.725;stroke-linecap:round;stroke-linejoin:miter;stroke-miterlimit:4;stroke-dasharray:none;stroke-opacity:1"
           id="path446" /></g><g
         id="g448"><path
           d="m 754.172,235.609 v 9.539"
           style="fill:none;stroke:#3f4f75;stroke-width:1.725;stroke-linecap:round;stroke-linejoin:miter;stroke-miterlimit:4;stroke-dasharray:none;stroke-opacity:1"
           id="path450" /></g><g
         id="g452"><path
           d="m 747.652,235.629 -0.004,7.324 c 0.008,1.453 1.883,1.988 2.993,2.266"
           style="fill:none;stroke:#3f4f75;stroke-width:1.725;stroke-linecap:round;stroke-linejoin:round;stroke-miterlimit:4;stroke-dasharray:none;stroke-opacity:1"
           id="path454" /></g><g
         id="g456"><path
           d="m 747.785,237.664 3.055,-0.016"
           style="fill:none;stroke:#3f4f75;stroke-width:1.65;stroke-linecap:round;stroke-linejoin:miter;stroke-miterlimit:4;stroke-dasharray:none;stroke-opacity:1"
           id="path458" /></g><g
         id="g460"><path
           d="m 757.469,237.57 c 0.992,2.118 2.472,5.301 2.91,6.215"
           style="fill:none;stroke:#3f4f75;stroke-width:1.725;stroke-linecap:round;stroke-linejoin:round;stroke-miterlimit:4;stroke-dasharray:none;stroke-opacity:1"
           id="path462" /></g><g
         id="g464"><path
           d="m 763.156,237.504 -2.777,6.281 c -0.707,1.449 -1.024,3.102 -3.07,3.153"
           style="fill:none;stroke:#3f4f75;stroke-width:1.725;stroke-linecap:round;stroke-linejoin:round;stroke-miterlimit:4;stroke-dasharray:none;stroke-opacity:1"
           id="path466" /></g><g
         id="g468"><path
           d="m 744.207,240.871 c 0.023,2.027 -1.269,3.695 -2.887,3.731 -1.617,0.035 -2.953,-1.579 -2.984,-3.606 -0.031,-2.027 1.25,-3.703 2.867,-3.75 1.617,-0.047 2.961,1.559 3.004,3.586"
           style="fill:none;stroke:#3f4f75;stroke-width:1.725;stroke-linecap:round;stroke-linejoin:round;stroke-miterlimit:4;stroke-dasharray:none;stroke-opacity:1"
           id="path470" /></g><g
         id="g472"><path
           d="m 731.457,241.145 c 0.023,2.027 -1.266,3.695 -2.883,3.73 -1.621,0.035 -2.953,-1.578 -2.988,-3.605 -0.031,-2.028 1.254,-3.704 2.871,-3.75 1.617,-0.047 2.961,1.558 3,3.585"
           style="fill:none;stroke:#3f4f75;stroke-width:1.725;stroke-linecap:round;stroke-linejoin:round;stroke-miterlimit:4;stroke-dasharray:none;stroke-opacity:1"
           id="path474" /></g></g><g
       id="g476"><g
         id="g478"
         clip-path="url(#clipPath482)"><g
           id="g484"
           transform="matrix(44.999999,0,0,-44.999999,386.85374,208.12942)"><image
             width="1"
             height="1"
             preserveAspectRatio="none"
             transform="matrix(1,0,0,-1,0,1)"
             xlink:href="../../../workflow_img5.png"
             mask="url(#mask486)"
             id="image490" /></g></g></g><g
       id="g492"><g
         id="g494"
         clip-path="url(#clipPath498)"><g
           id="g500"
           transform="matrix(44.999999,0,0,-44.999999,536.2421,208.12942)"><image
             width="1"
             height="1"
             preserveAspectRatio="none"
             transform="matrix(1,0,0,-1,0,1)"
             xlink:href="../../../workflow_img7.png"
             mask="url(#mask502)"
             id="image506" /></g></g></g><g
       id="g508"><g
         id="g510"><g
           id="g512"><path
             d="m 561.312,306.289 c 1.852,-1.648 1.844,-1.633 1.844,-1.633 m -11.461,-0.976 c 10.532,0.57 12.825,7.539 9.817,12.203 -1.719,2.668 -5.176,4.578 -9.817,4.101 m 12.071,-8.132 h 7.875 m -7.829,-7.981 v 16.356 m -22.027,-8.559 h 9.91 v -7.988 h 22.496 m -32.433,16.656 v -17.18"
             style="fill:none;stroke:url(#linearGradient518);stroke-width:3.525;stroke-linecap:round;stroke-linejoin:round;stroke-miterlimit:4;stroke-dasharray:none;stroke-opacity:1"
             id="path520" /></g></g><g
         id="g522"><g
           id="g524" /><g
           id="g538"><g
             clip-path="url(#clipPath528)"
             opacity="0.442"
             id="g536"><g
               id="g534"><g
                 id="g532"><path
                   d="M 266.32,0.062 V 346.609"
                   style="fill:none;stroke:#000000;stroke-width:1.2735;stroke-linecap:butt;stroke-linejoin:miter;stroke-miterlimit:4;stroke-dasharray:15.282, 1.2735;stroke-dashoffset:0;stroke-opacity:1"
                   id="path530" /></g></g></g></g></g><g
         id="g540"><g
           id="g542" /><g
           id="g556"><g
             clip-path="url(#clipPath546)"
             opacity="0.44919"
             id="g554"><g
               id="g552"><g
                 id="g550"><path
                   d="M 634.914,0.086 V 346.605"
                   style="fill:none;stroke:#000000;stroke-width:1.3485;stroke-linecap:butt;stroke-linejoin:miter;stroke-miterlimit:4;stroke-dasharray:16.182, 1.3485;stroke-dashoffset:0;stroke-opacity:1"
                   id="path548" /></g></g></g></g></g><g
         id="g558"><path
           d="m 150.922,41.191 c 0,8.528 -6.91,15.442 -15.438,15.442 -8.527,0 -15.441,-6.914 -15.441,-15.442 0,-8.523 6.914,-15.437 15.441,-15.437 8.528,0 15.438,6.914 15.438,15.437 z"
           style="fill:none;stroke:#04aaff;stroke-width:6.77083;stroke-linecap:round;stroke-linejoin:miter;stroke-miterlimit:4;stroke-dasharray:none;stroke-opacity:1"
           id="path560" /></g><text
         transform="translate(129.2318,47.964538)"
         style="font-variant:normal;font-weight:normal;font-size:20.8691px;font-family:Cousine;-inkscape-font-specification:Cousine;writing-mode:lr-tb;fill:#000000;fill-opacity:1;fill-rule:nonzero;stroke:none"
         id="text564"><tspan
           x="0"
           y="0"
           id="tspan562">1</tspan></text><g
         id="g566"><path
           d="m 466.059,41.191 c 0,8.528 -6.914,15.442 -15.442,15.442 -8.527,0 -15.441,-6.914 -15.441,-15.442 0,-8.523 6.914,-15.437 15.441,-15.437 8.528,0 15.442,6.914 15.442,15.437 z"
           style="fill:none;stroke:#04aaff;stroke-width:6.77083;stroke-linecap:round;stroke-linejoin:miter;stroke-miterlimit:4;stroke-dasharray:none;stroke-opacity:1"
           id="path568" /></g><text
         transform="translate(444.36551,47.964538)"
         style="font-variant:normal;font-weight:normal;font-size:20.8691px;font-family:Cousine;-inkscape-font-specification:Cousine;writing-mode:lr-tb;fill:#000000;fill-opacity:1;fill-rule:nonzero;stroke:none"
         id="text572"><tspan
           x="0"
           y="0"
           id="tspan570">2</tspan></text><g
         id="g574"><path
           d="m 719.363,41.191 c 0,8.528 -6.91,15.442 -15.437,15.442 -8.528,0 -15.442,-6.914 -15.442,-15.442 0,-8.523 6.914,-15.437 15.442,-15.437 8.527,0 15.437,6.914 15.437,15.437 z"
           style="fill:none;stroke:#04aaff;stroke-width:6.77083;stroke-linecap:round;stroke-linejoin:miter;stroke-miterlimit:4;stroke-dasharray:none;stroke-opacity:1"
           id="path576" /></g><text
         transform="translate(697.6726,47.964538)"
         style="font-variant:normal;font-weight:normal;font-size:20.8691px;font-family:Cousine;-inkscape-font-specification:Cousine;writing-mode:lr-tb;fill:#000000;fill-opacity:1;fill-rule:nonzero;stroke:none"
         id="text580"><tspan
           x="0"
           y="0"
           id="tspan578">3</tspan></text></g></g></svg>
