<svg xmlns="http://www.w3.org/2000/svg" xmlns:svg="http://www.w3.org/2000/svg" xmlns:xlink="http://www.w3.org/1999/xlink" id="svg2" width="1033.457" height="462.148" version="1.1" viewBox="0 0 1033.457 462.148" xml:space="preserve"><defs id="defs6"><radialGradient id="radialGradient20" cx="53.289" cy="83.386" r="38.467" fx="53.289" fy="83.386" gradientTransform="matrix(1.482333,0.00949773,-0.00842949,1.315616,480.45296,75.418684)" gradientUnits="userSpaceOnUse" spreadMethod="pad"><stop style="stop-opacity:1;stop-color:#000" id="stop16" offset="0"/><stop style="stop-opacity:1;stop-color:#666" id="stop18" offset="1"/></radialGradient><radialGradient id="radialGradient74" cx="53.289" cy="83.386" r="38.467" fx="53.289" fy="83.386" gradientTransform="matrix(1.482333,0.00949773,-0.00842949,1.315616,120.56951,75.418684)" gradientUnits="userSpaceOnUse" spreadMethod="pad"><stop style="stop-opacity:1;stop-color:#000" id="stop70" offset="0"/><stop style="stop-opacity:1;stop-color:#666" id="stop72" offset="1"/></radialGradient><clipPath id="clipPath84" clipPathUnits="userSpaceOnUse"><path id="path82" d="m 176.359,163.129 h 45 v 45 h -45 z"/></clipPath><mask id="mask88" width="1" height="1" x="0" y="0" maskUnits="userSpaceOnUse"><image id="image90" width="1" height="1" preserveAspectRatio="none" xlink:href="../../../workflow_img0.png"/></mask><radialGradient id="radialGradient104" cx="53.289" cy="83.386" r="38.467" fx="53.289" fy="83.386" gradientTransform="matrix(1.482333,0.00949773,-0.00842949,1.315616,245.01966,-52.587198)" gradientUnits="userSpaceOnUse" spreadMethod="pad"><stop style="stop-opacity:1;stop-color:#000" id="stop100" offset="0"/><stop style="stop-opacity:1;stop-color:#666" id="stop102" offset="1"/></radialGradient><clipPath id="clipPath114" clipPathUnits="userSpaceOnUse"><path id="path112" d="m 291.934,25.766 h 62.754 v 63.711 h -62.754 z"/></clipPath><mask id="mask118" width="1" height="1" x="0" y="0" maskUnits="userSpaceOnUse"><image id="image120" width=".985" height="1" preserveAspectRatio="none" xlink:href="../../../workflow_img2.png"/></mask><radialGradient id="radialGradient192" cx="53.289" cy="83.386" r="38.467" fx="53.289" fy="83.386" gradientTransform="matrix(1.482333,0.00949773,-0.00842949,1.315616,-39.166561,75.418679)" gradientUnits="userSpaceOnUse" spreadMethod="pad"><stop style="stop-opacity:1;stop-color:#000" id="stop188" offset="0"/><stop style="stop-opacity:1;stop-color:#666" id="stop190" offset="1"/></radialGradient><radialGradient id="radialGradient212" cx="53.289" cy="83.386" r="38.467" fx="53.289" fy="83.386" gradientTransform="matrix(1.482333,0.00949773,-0.00842949,1.315616,331.06459,75.418683)" gradientUnits="userSpaceOnUse" spreadMethod="pad"><stop style="stop-opacity:1;stop-color:#000" id="stop208" offset="0"/><stop style="stop-opacity:1;stop-color:#666" id="stop210" offset="1"/></radialGradient><radialGradient id="radialGradient228" cx="53.289" cy="83.386" r="38.467" fx="53.289" fy="83.386" gradientTransform="matrix(0.884083,0.00565394,-0.00502746,0.783178,324.35073,248.43998)" gradientUnits="userSpaceOnUse" spreadMethod="pad"><stop style="stop-opacity:1;stop-color:#000" id="stop224" offset="0"/><stop style="stop-opacity:1;stop-color:#666" id="stop226" offset="1"/></radialGradient><radialGradient id="radialGradient244" cx="53.289" cy="83.386" r="38.467" fx="53.289" fy="83.386" gradientTransform="matrix(0.884083,0.00565394,-0.00502746,0.783178,408.50607,248.43998)" gradientUnits="userSpaceOnUse" spreadMethod="pad"><stop style="stop-opacity:1;stop-color:#000" id="stop240" offset="0"/><stop style="stop-opacity:1;stop-color:#666" id="stop242" offset="1"/></radialGradient><radialGradient id="radialGradient260" cx="53.289" cy="83.386" r="38.467" fx="53.289" fy="83.386" gradientTransform="matrix(1.482333,0.00949773,-0.00842949,1.315616,653.1989,75.418684)" gradientUnits="userSpaceOnUse" spreadMethod="pad"><stop style="stop-opacity:1;stop-color:#000" id="stop256" offset="0"/><stop style="stop-opacity:1;stop-color:#666" id="stop258" offset="1"/></radialGradient><clipPath id="clipPath482" clipPathUnits="userSpaceOnUse"><path id="path480" d="m 386.855,163.129 h 45 v 45 h -45 z"/></clipPath><mask id="mask486" width="1" height="1" x="0" y="0" maskUnits="userSpaceOnUse"><image id="image488" width="1" height="1" preserveAspectRatio="none" xlink:href="../../../workflow_img4.png"/></mask><clipPath id="clipPath498" clipPathUnits="userSpaceOnUse"><path id="path496" d="m 536.242,163.129 h 45 v 45 h -45 z"/></clipPath><mask id="mask502" width="1" height="1" x="0" y="0" maskUnits="userSpaceOnUse"><image id="image504" width="1" height="1" preserveAspectRatio="none" xlink:href="../../../workflow_img6.png"/></mask><linearGradient id="linearGradient518" x1="512.39" x2="512.613" y1="193.584" y2="181.951" gradientTransform="translate(27.464197,121.43704)" gradientUnits="userSpaceOnUse" spreadMethod="pad"><stop style="stop-opacity:1;stop-color:#2cab28" id="stop514" offset="0"/><stop style="stop-opacity:1;stop-color:#0515fe" id="stop516" offset="1"/></linearGradient><clipPath id="clipPath528" clipPathUnits="userSpaceOnUse"><path id="path526" d="M 0,0 H 776 V 347 H 0 Z"/></clipPath><clipPath id="clipPath546" clipPathUnits="userSpaceOnUse"><path id="path544" d="M 0,0 H 776 V 347 H 0 Z"/></clipPath></defs><g id="g8" transform="matrix(1.3333333,0,0,1.3333333,0,1.3553697e-5)"><path d="m 521.738,148.559 h 74.008 V 222.7 h -74.008 z" style="fill:none;stroke:url(#radialGradient20);stroke-width:1.44825;stroke-linecap:round;stroke-linejoin:round;stroke-miterlimit:4;stroke-dasharray:none;stroke-opacity:1" id="path22"/><text style="font-variant:normal;font-weight:400;font-size:14px;font-family:'DejaVu Math TeX Gyre';-inkscape-font-specification:DejaVuMathTeXGyre-Regular;writing-mode:lr-tb;fill:#000;fill-opacity:1;fill-rule:nonzero;stroke:none" id="text32" x="14.063" y="120.314"><tspan id="tspan24" x="14.063 23.471 31.367 36.981 45.997 54.425" y="120.314">Python</tspan><tspan id="tspan26" x="-.7 7.644 16.604 25.564 30.03 34.496 42.336 50.68 56.294 60.76 69.188" y="137.814">application</tspan><tspan id="tspan28" x="540.046 549.37 556.062 564.406 572.246" y="119.999">Trace</tspan><tspan id="tspan30" x="516.372 526.48 535.44 544.4 551.092 559.366 568.326 576.67 582.284 586.75 595.178" y="137.499">Aggregation</tspan></text><path d="M 19.848,289.35901 H 245 v 36.89085 H 19.848 Z" style="fill:none;stroke:#000;stroke-width:.427872;stroke-linecap:round;stroke-linejoin:miter;stroke-miterlimit:4;stroke-dasharray:none;stroke-opacity:1" id="path36"/><text style="font-variant:normal;font-weight:400;font-size:12px;font-family:'DejaVu Math TeX Gyre';-inkscape-font-specification:DejaVuMathTeXGyre-Regular;writing-mode:lr-tb;fill:#000;fill-opacity:1;fill-rule:nonzero;stroke:none" id="text40" x="44.136" y="311.38"><tspan id="tspan38" x="44.136 55.512 62.736 70.416 74.22 78.66 86.388 94.116 97.92 107.376 111.18 121.44 127.176 134.328 142.008 149.688 156.78 162.516 167.604 178.98 186.204 193.884 197.688 202.128 209.856 217.584" y="311.38">mod.fun = wrapper(mod.fun)</tspan></text><path d="m 337.77,279.34 h 149.535 v 67.043 H 337.77 Z" style="fill:none;stroke:#000;stroke-width:.459892;stroke-linecap:round;stroke-linejoin:miter;stroke-miterlimit:4;stroke-dasharray:1.83955,3.67911;stroke-dashoffset:0;stroke-opacity:1" id="path44"/><text style="font-variant:normal;font-weight:400;font-size:14px;font-family:'DejaVu Math TeX Gyre';-inkscape-font-specification:DejaVuMathTeXGyre-Regular;writing-mode:lr-tb;fill:#000;fill-opacity:1;fill-rule:nonzero;stroke:none" id="text56" x="142.98" y="130.254"><tspan id="tspan46" x="142.98 148.51 157.526 164.708 170.322 177.014 186.03 199.302 207.576 216.592 222.206 230.55 236.164 240.63 249.058" y="130.254">Instrumentation</tspan><tspan id="tspan48" x="270.823 283.073 291.501 295.967 303.149 311.423 315.861 320.327 329.343 333.683 341.957 349.797 355.411 359.877 368.305" y="13.304">Noise injection</tspan><tspan id="tspan50" x="379.226 393.534 402.55 407.016 412.63 417.096 426.056 430.522" y="108.372">Multiple</tspan><tspan id="tspan52" x="142.98" y="126.324"> Independent</tspan><tspan id="tspan54" x="370.056 380.262 388.144 396.418 404.258 413.274 418.888 423.354 431.782 440.798" y="143.372">Executions</tspan></text><path d="m 316.262,94.375 c -1.278,47.367 25.472,69.77 44.871,74.504" style="fill:none;stroke:#000;stroke-width:.631801;stroke-linecap:butt;stroke-linejoin:miter;stroke-miterlimit:4;stroke-dasharray:3.79081,3.79081;stroke-dashoffset:0;stroke-opacity:1" id="path60"/><path d="m 354.99175,167.3794 -3.05038,1.85909 9.19113,-0.36001 -7.99535,-4.55048 z" style="fill:#000;fill-opacity:1;fill-rule:evenodd;stroke:#000;stroke-width:.673921;stroke-linecap:butt;stroke-linejoin:miter;stroke-miterlimit:4;stroke-dasharray:none;stroke-opacity:1" id="path64"/><path d="m 161.855,148.559 h 74.004 V 222.7 h -74.004 z" style="fill:none;stroke:url(#radialGradient74);stroke-width:1.44825;stroke-linecap:round;stroke-linejoin:round;stroke-miterlimit:4;stroke-dasharray:none;stroke-opacity:1" id="path76"/><g id="g78"><g id="g80" clip-path="url(#clipPath84)"><g id="g86" transform="matrix(44.999999,0,0,-44.999999,176.35866,208.12942)"><image id="image92" width="1" height="1" mask="url(#mask88)" preserveAspectRatio="none" transform="matrix(1,0,0,-1,0,1)" xlink:href="../../../workflow_img1.png"/></g></g></g><g id="g94"><g id="g96"><g id="g98"><path d="m 286.309,20.551 h 74.004 v 74.145 h -74.004 z" style="fill:none;stroke:url(#radialGradient104);stroke-width:1.44825;stroke-linecap:round;stroke-linejoin:round;stroke-miterlimit:4;stroke-dasharray:none;stroke-opacity:1" id="path106"/></g></g></g><g id="g108"><g id="g110" clip-path="url(#clipPath114)"><g id="g116" transform="matrix(62.754176,0,0,-63.712256,291.93173,89.479668)"><image id="image122" width=".985" height="1" mask="url(#mask118)" preserveAspectRatio="none" transform="matrix(1,0,0,-1,0,1)" xlink:href="../../../workflow_img3.png"/></g><text transform="translate(304.66085,61.389543)" style="font-variant:normal;font-weight:400;font-size:14px;font-family:'DejaVu Math TeX Gyre';-inkscape-font-specification:DejaVuMathTeXGyre-Regular;writing-mode:lr-tb;fill:#fff;fill-opacity:1;fill-rule:nonzero;stroke:none" id="text126"><tspan id="tspan124" x="0 5.18 14.196 21.56 28.924" y="0">fuzzy</tspan></text></g></g><g id="g128"><text transform="translate(684.20529,130.42236)" style="font-variant:normal;font-weight:400;font-size:14px;font-family:'DejaVu Math TeX Gyre';-inkscape-font-specification:DejaVuMathTeXGyre-Regular;writing-mode:lr-tb;fill:#000;fill-opacity:1;fill-rule:nonzero;stroke:none" id="text134"><tspan id="tspan130" x="0 10.108 14.574 21.756 30.772 39.116 43.582 48.048 55.412 63.756 69.37 73.836 82.264" y="0">Visualization</tspan><tspan id="tspan132" x="-279.735 -275.297 -270.859" y="184.339">...</tspan></text><g id="g136"><path d="m 81.664,185.629 h 66.43" style="fill:none;stroke:#000;stroke-width:.75;stroke-linecap:butt;stroke-linejoin:miter;stroke-miterlimit:4;stroke-dasharray:none;stroke-opacity:1" id="path138"/></g><g id="g140" transform="scale(-1)"><path d="m -140.594,-185.629 3,-3 -10.5,3 10.5,3 z" style="fill:#000;fill-opacity:1;fill-rule:evenodd;stroke:#000;stroke-width:.8;stroke-linecap:butt;stroke-linejoin:miter;stroke-miterlimit:4;stroke-dasharray:none;stroke-opacity:1" id="path142"/></g><g id="g144"><path d="m 246.484,185.629 118.411,0.07" style="fill:none;stroke:#000;stroke-width:.75;stroke-linecap:butt;stroke-linejoin:miter;stroke-miterlimit:4;stroke-dasharray:none;stroke-opacity:1" id="path146"/></g><g id="g148" transform="rotate(-179.96562)"><path d="m -357.506,-185.481 3.002,-3.002 -10.502,3.003 10.502,2.997 z" style="fill:#000;fill-opacity:1;fill-rule:evenodd;stroke:#000;stroke-width:.8;stroke-linecap:butt;stroke-linejoin:miter;stroke-miterlimit:4;stroke-dasharray:none;stroke-opacity:1" id="path150"/></g><g id="g152"><path d="m 560.234,224.312 v 61.973" style="fill:none;stroke:#000;stroke-width:.75;stroke-linecap:round;stroke-linejoin:miter;stroke-miterlimit:4;stroke-dasharray:none;stroke-opacity:1" id="path154"/></g><g id="g156" transform="rotate(-90)"><path d="m -278.785,560.234 3,-3 -10.5,3 10.5,3 z" style="fill:#000;fill-opacity:1;fill-rule:evenodd;stroke:#000;stroke-width:.8;stroke-linecap:butt;stroke-linejoin:miter;stroke-miterlimit:4;stroke-dasharray:none;stroke-opacity:1" id="path158"/></g><g id="g160"><path d="m 601.285,185.629 h 84.664" style="fill:none;stroke:#000;stroke-width:.75;stroke-linecap:round;stroke-linejoin:miter;stroke-miterlimit:4;stroke-dasharray:4.5,4.5;stroke-dashoffset:0;stroke-opacity:1" id="path162"/></g><g id="g164" transform="scale(-1)"><path d="m -678.449,-185.629 3,-3 -10.5,3 10.5,3 z" style="fill:#000;fill-opacity:1;fill-rule:evenodd;stroke:#000;stroke-width:.8;stroke-linecap:butt;stroke-linejoin:miter;stroke-miterlimit:4;stroke-dasharray:none;stroke-opacity:1" id="path166"/></g><g id="g168"><path d="m 457.445,185.512 57.297,0.117" style="fill:none;stroke:#000;stroke-width:.75;stroke-linecap:butt;stroke-linejoin:miter;stroke-miterlimit:4;stroke-dasharray:4.5,4.5;stroke-dashoffset:0;stroke-opacity:1" id="path170"/></g><g id="g172" transform="matrix(-1,-0.00204636,0.00204636,-1,0,0)"><path d="m -507.62,-184.575 2.998,-3.002 -10.498,3.002 10.498,2.998 z" style="fill:#000;fill-opacity:1;fill-rule:evenodd;stroke:#000;stroke-width:.799998;stroke-linecap:butt;stroke-linejoin:miter;stroke-miterlimit:4;stroke-dasharray:none;stroke-opacity:1" id="path174"/></g><g id="g176"><path d="m 154.355,222.699 c -42.667,6.535 -40.328,33.953 -41.074,59.942" style="fill:none;stroke:#000;stroke-width:.75;stroke-linecap:butt;stroke-linejoin:miter;stroke-miterlimit:4;stroke-dasharray:4.5,4.5;stroke-dashoffset:0;stroke-opacity:1" id="path178"/></g><g id="g180" transform="matrix(0.0286774,-1,1,0.0286774,0,0)"><path d="m -271.666,121.287 3,-3 -10.496,3 10.492,3 z" style="fill:#000;fill-opacity:1;fill-rule:evenodd;stroke:#000;stroke-width:.799671;stroke-linecap:butt;stroke-linejoin:miter;stroke-miterlimit:4;stroke-dasharray:none;stroke-opacity:1" id="path182"/></g><g id="g184"><g id="g186"><path d="M 2.121,148.559 H 76.125 V 222.7 H 2.121 Z" style="fill:none;stroke:url(#radialGradient192);stroke-width:1.44825;stroke-linecap:round;stroke-linejoin:round;stroke-miterlimit:4;stroke-dasharray:none;stroke-opacity:1" id="path194"/></g></g><text transform="translate(48.680437,214.21394)" style="font-variant:normal;font-weight:400;font-size:14px;font-family:'DejaVu Math TeX Gyre';-inkscape-font-specification:DejaVuMathTeXGyre-Regular;writing-mode:lr-tb;fill:#5a5a5a;fill-opacity:1;fill-rule:nonzero;stroke:none" id="text198"><tspan id="tspan196" x="0 4.438 13.398" y="0">.py</tspan></text><path d="m 38.594,163.129 c -5.199,0.027 -10.242,1.601 -10.324,4.933 v 5.231 h 10.89 v 1.551 H 23.52 c -9.641,0.101 -8.739,22.597 0,22.019 l 3.316,-0.019 v -5.672 c 0.402,-3.977 2.453,-5.973 6.027,-6.145 l 11.172,-0.004 c 3.66,-0.335 5.809,-2.074 5.914,-5.703 l 0.028,-11.261 c -0.122,-3.231 -5.844,-4.957 -11.383,-4.93 z m -5.614,3.305 c 1.243,0 2.25,0.964 2.254,2.156 0,1.191 -1.011,2.156 -2.254,2.156 -1.242,-0.004 -2.25,-0.969 -2.25,-2.156 0,-1.192 1.008,-2.156 2.25,-2.156 z" style="fill:#4872a6;fill-opacity:.985427;fill-rule:evenodd;stroke:none" id="path200"/><path d="m 39.648,208.129 c 5.204,-0.027 10.243,-1.602 10.329,-4.93 v -5.234 H 39.082 v -1.547 h 15.641 c 9.644,-0.102 8.742,-22.598 0,-22.02 l -3.313,0.016 -0.004,5.672 c -0.398,3.976 -2.449,5.976 -6.023,6.144 l -11.172,0.004 c -3.66,0.336 -5.809,2.075 -5.918,5.704 l -0.023,11.261 c 0.121,3.231 5.843,4.957 11.378,4.93 z m 5.618,-3.305 c -1.246,0 -2.254,-0.965 -2.254,-2.152 0,-1.192 1.008,-2.156 2.254,-2.156 1.242,0 2.25,0.964 2.25,2.156 0,1.187 -1.008,2.152 -2.25,2.152 z" style="fill:#f7cf3f;fill-opacity:1;fill-rule:evenodd;stroke:none" id="path202"/><g id="g204"><g id="g206"><path d="m 372.352,148.559 h 74.004 V 222.7 h -74.004 z" style="fill:none;stroke:url(#radialGradient212);stroke-width:1.44825;stroke-linecap:round;stroke-linejoin:round;stroke-miterlimit:4;stroke-dasharray:none;stroke-opacity:1" id="path214"/></g></g><text transform="translate(357.4214,317.91177)" style="font-variant:normal;font-weight:400;font-size:12px;font-family:'DejaVu Math TeX Gyre';-inkscape-font-specification:DejaVuMathTeXGyre-Regular;writing-mode:lr-tb;fill:#000;fill-opacity:1;fill-rule:nonzero;stroke:none" id="text218"><tspan id="tspan216" x="0 3.804 11.484 18.744" y="0">.pkl</tspan></text><g id="g220"><g id="g222"><path d="m 348.977,291.98 h 44.137 v 44.137 h -44.137 z" style="fill:none;stroke:url(#radialGradient228);stroke-width:.862943;stroke-linecap:round;stroke-linejoin:round;stroke-miterlimit:4;stroke-dasharray:none;stroke-opacity:1" id="path230"/></g></g><text transform="translate(441.57674,317.91177)" style="font-variant:normal;font-weight:400;font-size:12px;font-family:'DejaVu Math TeX Gyre';-inkscape-font-specification:DejaVuMathTeXGyre-Regular;writing-mode:lr-tb;fill:#000;fill-opacity:1;fill-rule:nonzero;stroke:none" id="text234"><tspan id="tspan232" x="0 3.804 11.484 18.744" y="0">.pkl</tspan></text><g id="g236"><g id="g238"><path d="m 433.129,291.98 h 44.137 v 44.137 h -44.137 z" style="fill:none;stroke:url(#radialGradient244);stroke-width:.862943;stroke-linecap:round;stroke-linejoin:round;stroke-miterlimit:4;stroke-dasharray:none;stroke-opacity:1" id="path246"/></g></g><g id="g248" transform="scale(1,0.848921)"><path d="m 535.781,340.994 h 44.391 v 52.461 h -44.391 z" style="fill:none;stroke:#000;stroke-width:.601587;stroke-linecap:round;stroke-linejoin:miter;stroke-miterlimit:4;stroke-dasharray:none;stroke-opacity:1" id="path250"/></g><g id="g252"><g id="g254"><path d="m 694.484,148.559 h 74.004 V 222.7 h -74.004 z" style="fill:none;stroke:url(#radialGradient260);stroke-width:1.44825;stroke-linecap:round;stroke-linejoin:round;stroke-miterlimit:4;stroke-dasharray:none;stroke-opacity:1" id="path262"/></g></g><g id="g264"><path d="m 712.492,163.129 v 45" style="fill:none;stroke:#3f4f75;stroke-width:1.29848;stroke-linecap:butt;stroke-linejoin:miter;stroke-miterlimit:4;stroke-dasharray:none;stroke-opacity:1" id="path266"/></g><g id="g268"><path d="m 753.988,204.609 h -45" style="fill:none;stroke:#3f4f75;stroke-width:1.29848;stroke-linecap:butt;stroke-linejoin:miter;stroke-miterlimit:4;stroke-dasharray:none;stroke-opacity:1" id="path270"/></g><g id="g272"><path d="m 716.75,194.695 5.543,-5.488" style="fill:none;stroke:#3f4f75;stroke-width:1.29848;stroke-linecap:butt;stroke-linejoin:miter;stroke-miterlimit:4;stroke-dasharray:none;stroke-opacity:1" id="path274"/></g><g id="g276"><path d="m 725.922,185.629 2.781,-2.777 9.957,-0.012 13.16,-13.156" style="fill:none;stroke:#3f4f75;stroke-width:1.29848;stroke-linecap:butt;stroke-linejoin:miter;stroke-miterlimit:4;stroke-dasharray:none;stroke-opacity:1" id="path278"/></g><g id="g280"><path d="m 751.82,172.867 v -3.183" style="fill:none;stroke:#3f4f75;stroke-width:1.29848;stroke-linecap:square;stroke-linejoin:miter;stroke-miterlimit:4;stroke-dasharray:none;stroke-opacity:1" id="path282"/></g><g id="g284"><path d="m 751.82,169.684 h -3.183" style="fill:none;stroke:#3f4f75;stroke-width:1.29848;stroke-linecap:square;stroke-linejoin:miter;stroke-miterlimit:4;stroke-dasharray:none;stroke-opacity:1" id="path286"/></g><g id="g288" transform="rotate(90)"><path d="m 179.445,-745.641 6.118,-6.289" style="fill:none;stroke:#3f4f75;stroke-width:1.29848;stroke-linecap:butt;stroke-linejoin:miter;stroke-miterlimit:4;stroke-dasharray:none;stroke-opacity:1" id="path290"/></g><g id="g292" transform="rotate(90)"><path d="m 185.563,-748.746 v -3.184" style="fill:none;stroke:#3f4f75;stroke-width:1.29848;stroke-linecap:square;stroke-linejoin:miter;stroke-miterlimit:4;stroke-dasharray:none;stroke-opacity:1" id="path294"/></g><g id="g296" transform="rotate(90)"><path d="m 185.563,-751.93 h -3.184" style="fill:none;stroke:#3f4f75;stroke-width:1.29848;stroke-linecap:square;stroke-linejoin:miter;stroke-miterlimit:4;stroke-dasharray:none;stroke-opacity:1" id="path298"/></g><g id="g300" transform="matrix(0.970141,1,-1,0.970141,0,0)"><path d="m 475.104,-291.113 -6.436,6.623 -3.586,0.1 0.045,4.934 -13.95,0.235" style="fill:none;stroke:#3f4f75;stroke-width:.931973;stroke-linecap:butt;stroke-linejoin:miter;stroke-miterlimit:4;stroke-dasharray:none;stroke-opacity:1" id="path302"/></g><g id="g304" transform="matrix(0.970141,1,-1,0.970141,0,0)"><path d="m 475.105,-288.831 -0.001,-2.282" style="fill:none;stroke:#3f4f75;stroke-width:.931973;stroke-linecap:square;stroke-linejoin:miter;stroke-miterlimit:4;stroke-dasharray:none;stroke-opacity:1" id="path306"/></g><g id="g308" transform="matrix(0.970141,1,-1,0.970141,0,0)"><path d="m 475.104,-291.113 -2.284,-10e-4" style="fill:none;stroke:#3f4f75;stroke-width:.931973;stroke-linecap:square;stroke-linejoin:miter;stroke-miterlimit:4;stroke-dasharray:none;stroke-opacity:1" id="path310"/></g><g id="g312"><path d="m 716.152,170.863 h 9.125 l 4.133,4.321 4.285,-4.321 h 3.649 l 4.715,4.723" style="fill:none;stroke:#3f4f75;stroke-width:1.29848;stroke-linecap:butt;stroke-linejoin:miter;stroke-miterlimit:4;stroke-dasharray:none;stroke-opacity:1" id="path314"/></g><g id="g316"><path d="m 717.504,201.512 h 0.66 v 0.66 h -0.66 z" style="fill:#5a5a5a;fill-opacity:1;fill-rule:evenodd;stroke:#3f4f75;stroke-width:.7173;stroke-linecap:butt;stroke-linejoin:miter;stroke-miterlimit:4;stroke-dasharray:none;stroke-opacity:1" id="path318"/></g><g id="g320"><path d="m 715.211,201.512 h 0.66 v 0.66 h -0.66 z" style="fill:#5a5a5a;fill-opacity:1;fill-rule:evenodd;stroke:#3f4f75;stroke-width:.7173;stroke-linecap:butt;stroke-linejoin:miter;stroke-miterlimit:4;stroke-dasharray:none;stroke-opacity:1" id="path322"/></g><g id="g324"><path d="m 720.152,201.512 h 0.66 v 0.66 h -0.66 z" style="fill:#5a5a5a;fill-opacity:1;fill-rule:evenodd;stroke:#3f4f75;stroke-width:.7173;stroke-linecap:butt;stroke-linejoin:miter;stroke-miterlimit:4;stroke-dasharray:none;stroke-opacity:1" id="path326"/></g><g id="g328"><path d="m 722.805,201.512 h 0.66 v 0.66 h -0.66 z" style="fill:#5a5a5a;fill-opacity:1;fill-rule:evenodd;stroke:#3f4f75;stroke-width:.7173;stroke-linecap:butt;stroke-linejoin:miter;stroke-miterlimit:4;stroke-dasharray:none;stroke-opacity:1" id="path330"/></g><g id="g332"><path d="m 725.453,201.512 h 0.66 v 0.66 h -0.66 z" style="fill:#5a5a5a;fill-opacity:1;fill-rule:evenodd;stroke:#3f4f75;stroke-width:.7173;stroke-linecap:butt;stroke-linejoin:miter;stroke-miterlimit:4;stroke-dasharray:none;stroke-opacity:1" id="path334"/></g><g id="g336"><path d="m 728.102,201.512 h 0.66 v 0.66 h -0.66 z" style="fill:#5a5a5a;fill-opacity:1;fill-rule:evenodd;stroke:#3f4f75;stroke-width:.7173;stroke-linecap:butt;stroke-linejoin:miter;stroke-miterlimit:4;stroke-dasharray:none;stroke-opacity:1" id="path338"/></g><g id="g340"><path d="m 730.754,201.512 h 0.66 v 0.66 h -0.66 z" style="fill:#5a5a5a;fill-opacity:1;fill-rule:evenodd;stroke:#3f4f75;stroke-width:.7173;stroke-linecap:butt;stroke-linejoin:miter;stroke-miterlimit:4;stroke-dasharray:none;stroke-opacity:1" id="path342"/></g><g id="g344"><path d="m 733.402,201.512 h 0.66 v 0.66 h -0.66 z" style="fill:#5a5a5a;fill-opacity:1;fill-rule:evenodd;stroke:#3f4f75;stroke-width:.7173;stroke-linecap:butt;stroke-linejoin:miter;stroke-miterlimit:4;stroke-dasharray:none;stroke-opacity:1" id="path346"/></g><g id="g348"><path d="m 736.055,201.512 h 0.66 v 0.66 h -0.66 z" style="fill:#5a5a5a;fill-opacity:1;fill-rule:evenodd;stroke:#3f4f75;stroke-width:.7173;stroke-linecap:butt;stroke-linejoin:miter;stroke-miterlimit:4;stroke-dasharray:none;stroke-opacity:1" id="path350"/></g><g id="g352"><path d="m 738.703,201.512 h 0.66 v 0.66 h -0.66 z" style="fill:#5a5a5a;fill-opacity:1;fill-rule:evenodd;stroke:#3f4f75;stroke-width:.7173;stroke-linecap:butt;stroke-linejoin:miter;stroke-miterlimit:4;stroke-dasharray:none;stroke-opacity:1" id="path354"/></g><g id="g356"><path d="m 741.355,201.512 h 0.656 v 0.66 h -0.656 z" style="fill:#5a5a5a;fill-opacity:1;fill-rule:evenodd;stroke:#3f4f75;stroke-width:.7173;stroke-linecap:butt;stroke-linejoin:miter;stroke-miterlimit:4;stroke-dasharray:none;stroke-opacity:1" id="path358"/></g><g id="g360"><path d="m 744.004,201.512 h 0.66 v 0.66 h -0.66 z" style="fill:#5a5a5a;fill-opacity:1;fill-rule:evenodd;stroke:#3f4f75;stroke-width:.7173;stroke-linecap:butt;stroke-linejoin:miter;stroke-miterlimit:4;stroke-dasharray:none;stroke-opacity:1" id="path362"/></g><g id="g364"><path d="m 746.652,201.512 h 0.66 v 0.66 h -0.66 z" style="fill:#5a5a5a;fill-opacity:1;fill-rule:evenodd;stroke:#3f4f75;stroke-width:.7173;stroke-linecap:butt;stroke-linejoin:miter;stroke-miterlimit:4;stroke-dasharray:none;stroke-opacity:1" id="path366"/></g><g id="g368"><path d="m 749.305,201.512 h 0.66 v 0.66 h -0.66 z" style="fill:#5a5a5a;fill-opacity:1;fill-rule:evenodd;stroke:#3f4f75;stroke-width:.7173;stroke-linecap:butt;stroke-linejoin:miter;stroke-miterlimit:4;stroke-dasharray:none;stroke-opacity:1" id="path370"/></g><g id="g372"><path d="m 751.953,201.512 h 0.66 v 0.66 h -0.66 z" style="fill:#5a5a5a;fill-opacity:1;fill-rule:evenodd;stroke:#3f4f75;stroke-width:.7173;stroke-linecap:butt;stroke-linejoin:miter;stroke-miterlimit:4;stroke-dasharray:none;stroke-opacity:1" id="path374"/></g><g id="g376"><path d="m 583.008,312.445 c 26.758,-59.14 61.469,-104.683 102.703,-109.113" style="fill:none;stroke:#000;stroke-width:.75;stroke-linecap:round;stroke-linejoin:miter;stroke-miterlimit:4;stroke-dasharray:none;stroke-opacity:1" id="path378"/></g><g id="g380" transform="matrix(-1,0.107431,-0.107431,-1,0,0)"><path d="m -648.835,-273.838 2.981,-2.984 -10.438,2.984 10.437,2.981 z" style="fill:#000;fill-opacity:1;fill-rule:evenodd;stroke:#000;stroke-width:.795423;stroke-linecap:butt;stroke-linejoin:miter;stroke-miterlimit:4;stroke-dasharray:none;stroke-opacity:1" id="path382"/></g><g id="g384"><path d="m 497.34,313.781 c 27.824,-16.519 34.039,-35.59 46.348,-85.855" style="fill:none;stroke:#000;stroke-width:.75;stroke-linecap:round;stroke-linejoin:miter;stroke-miterlimit:4;stroke-dasharray:none;stroke-opacity:1" id="path386"/></g><g id="g388" transform="matrix(-0.244867,1,-1,-0.244867,0,0)"><path d="m 96.718,-565.585 2.914,-2.917 -10.2,2.915 10.198,2.914 z" style="fill:#000;fill-opacity:1;fill-rule:evenodd;stroke:#000;stroke-width:.777043;stroke-linecap:butt;stroke-linejoin:miter;stroke-miterlimit:4;stroke-dasharray:none;stroke-opacity:1" id="path390"/></g><g id="g392"><path d="m 413.988,225.961 38.395,55.086" style="fill:none;stroke:#000;stroke-width:.75;stroke-linecap:round;stroke-linejoin:miter;stroke-miterlimit:4;stroke-dasharray:none;stroke-opacity:1" id="path394"/></g><g id="g396" transform="matrix(-0.696942,-1,1,-0.696942,0,0)"><path d="m -395.218,172.65 2.459,-2.463 -8.614,2.462 8.616,2.462 z" style="fill:#000;fill-opacity:1;fill-rule:evenodd;stroke:#000;stroke-width:.656327;stroke-linecap:butt;stroke-linejoin:miter;stroke-miterlimit:4;stroke-dasharray:none;stroke-opacity:1" id="path398"/></g><g id="g400"><path d="m 408.73,226.152 -38.394,55.086" style="fill:none;stroke:#000;stroke-width:.75;stroke-linecap:round;stroke-linejoin:miter;stroke-miterlimit:4;stroke-dasharray:none;stroke-opacity:1" id="path402"/></g><g id="g404" transform="matrix(0.696942,-1,1,0.696942,0,0)"><path d="m -9.419,381.189 2.461,-2.461 -8.614,2.461 8.614,2.461 z" style="fill:#000;fill-opacity:1;fill-rule:evenodd;stroke:#000;stroke-width:.656327;stroke-linecap:butt;stroke-linejoin:miter;stroke-miterlimit:4;stroke-dasharray:none;stroke-opacity:1" id="path406"/></g><g id="g408"><path d="m 699.91,229.215 h 18.375 c 1.285,0 2.324,1.035 2.324,2.32 v 17.774 c 0,1.285 -1.039,2.32 -2.324,2.32 H 699.91 c -1.289,0 -2.324,-1.035 -2.324,-2.32 v -17.774 c 0,-1.285 1.035,-2.32 2.324,-2.32 z" style="fill:#3f4f75;fill-opacity:1;fill-rule:evenodd;stroke:#3f4f75;stroke-width:.0754905;stroke-linecap:round;stroke-linejoin:miter;stroke-miterlimit:4;stroke-dasharray:none;stroke-opacity:1" id="path410"/></g><g id="g412"><path d="m 703.145,242.406 v 4.309" style="fill:none;stroke:#fff;stroke-width:1.95;stroke-linecap:round;stroke-linejoin:miter;stroke-miterlimit:4;stroke-dasharray:none;stroke-opacity:1" id="path414"/></g><g id="g416"><path d="m 707.195,238.453 v 8.262" style="fill:none;stroke:#fff;stroke-width:1.95;stroke-linecap:round;stroke-linejoin:miter;stroke-miterlimit:4;stroke-dasharray:none;stroke-opacity:1" id="path418"/></g><g id="g420"><path d="m 715.195,238.453 v 8.262" style="fill:none;stroke:#fff;stroke-width:1.95;stroke-linecap:round;stroke-linejoin:miter;stroke-miterlimit:4;stroke-dasharray:none;stroke-opacity:1" id="path422"/></g><g id="g424"><path d="m 711.254,242.406 v 4.309" style="fill:none;stroke:#fff;stroke-width:1.95;stroke-linecap:round;stroke-linejoin:miter;stroke-miterlimit:4;stroke-dasharray:none;stroke-opacity:1" id="path426"/></g><path d="m 704.121,238.504 c 0,0.523 -0.433,0.953 -0.965,0.957 -0.535,0 -0.972,-0.422 -0.98,-0.945 -0.008,-0.528 0.418,-0.957 0.953,-0.969 0.535,-0.012 0.976,0.406 0.992,0.933" style="fill:#80cfbe;fill-opacity:1;fill-rule:evenodd;stroke:none" id="path428"/><path d="m 704.121,234.691 c 0,0.528 -0.433,0.954 -0.965,0.957 -0.535,0.004 -0.972,-0.418 -0.98,-0.945 -0.008,-0.523 0.418,-0.957 0.953,-0.969 0.535,-0.007 0.976,0.407 0.992,0.934" style="fill:#80cfbe;fill-opacity:1;fill-rule:evenodd;stroke:none" id="path430"/><path d="m 708.168,234.691 c 0,0.528 -0.43,0.954 -0.965,0.957 -0.535,0.004 -0.973,-0.418 -0.98,-0.945 -0.004,-0.523 0.422,-0.957 0.957,-0.969 0.535,-0.007 0.976,0.407 0.988,0.934" style="fill:#80cfbe;fill-opacity:1;fill-rule:evenodd;stroke:none" id="path432"/><path d="m 712.227,234.691 c 0,0.528 -0.43,0.954 -0.965,0.957 -0.535,0.004 -0.973,-0.418 -0.981,-0.945 -0.004,-0.523 0.422,-0.957 0.957,-0.969 0.532,-0.007 0.977,0.407 0.989,0.934" style="fill:#80cfbe;fill-opacity:1;fill-rule:evenodd;stroke:none" id="path434"/><path d="m 712.227,238.504 c 0,0.523 -0.43,0.953 -0.965,0.957 -0.535,0 -0.973,-0.422 -0.981,-0.945 -0.004,-0.528 0.422,-0.957 0.957,-0.969 0.532,-0.012 0.977,0.406 0.989,0.933" style="fill:#80cfbe;fill-opacity:1;fill-rule:evenodd;stroke:none" id="path436"/><path d="m 716.168,234.691 c 0,0.528 -0.434,0.954 -0.965,0.957 -0.535,0.004 -0.973,-0.418 -0.98,-0.945 -0.008,-0.523 0.418,-0.957 0.953,-0.969 0.535,-0.007 0.976,0.407 0.992,0.934" style="fill:#80cfbe;fill-opacity:1;fill-rule:evenodd;stroke:none" id="path438"/><g id="g440"><path d="m 725.465,237.539 v 9.531" style="fill:none;stroke:#3f4f75;stroke-width:1.725;stroke-linecap:round;stroke-linejoin:round;stroke-miterlimit:4;stroke-dasharray:none;stroke-opacity:1" id="path442"/></g><g id="g444"><path d="m 734.68,235.68 v 9.539" style="fill:none;stroke:#3f4f75;stroke-width:1.725;stroke-linecap:round;stroke-linejoin:miter;stroke-miterlimit:4;stroke-dasharray:none;stroke-opacity:1" id="path446"/></g><g id="g448"><path d="m 754.172,235.609 v 9.539" style="fill:none;stroke:#3f4f75;stroke-width:1.725;stroke-linecap:round;stroke-linejoin:miter;stroke-miterlimit:4;stroke-dasharray:none;stroke-opacity:1" id="path450"/></g><g id="g452"><path d="m 747.652,235.629 -0.004,7.324 c 0.008,1.453 1.883,1.988 2.993,2.266" style="fill:none;stroke:#3f4f75;stroke-width:1.725;stroke-linecap:round;stroke-linejoin:round;stroke-miterlimit:4;stroke-dasharray:none;stroke-opacity:1" id="path454"/></g><g id="g456"><path d="m 747.785,237.664 3.055,-0.016" style="fill:none;stroke:#3f4f75;stroke-width:1.65;stroke-linecap:round;stroke-linejoin:miter;stroke-miterlimit:4;stroke-dasharray:none;stroke-opacity:1" id="path458"/></g><g id="g460"><path d="m 757.469,237.57 c 0.992,2.118 2.472,5.301 2.91,6.215" style="fill:none;stroke:#3f4f75;stroke-width:1.725;stroke-linecap:round;stroke-linejoin:round;stroke-miterlimit:4;stroke-dasharray:none;stroke-opacity:1" id="path462"/></g><g id="g464"><path d="m 763.156,237.504 -2.777,6.281 c -0.707,1.449 -1.024,3.102 -3.07,3.153" style="fill:none;stroke:#3f4f75;stroke-width:1.725;stroke-linecap:round;stroke-linejoin:round;stroke-miterlimit:4;stroke-dasharray:none;stroke-opacity:1" id="path466"/></g><g id="g468"><path d="m 744.207,240.871 c 0.023,2.027 -1.269,3.695 -2.887,3.731 -1.617,0.035 -2.953,-1.579 -2.984,-3.606 -0.031,-2.027 1.25,-3.703 2.867,-3.75 1.617,-0.047 2.961,1.559 3.004,3.586" style="fill:none;stroke:#3f4f75;stroke-width:1.725;stroke-linecap:round;stroke-linejoin:round;stroke-miterlimit:4;stroke-dasharray:none;stroke-opacity:1" id="path470"/></g><g id="g472"><path d="m 731.457,241.145 c 0.023,2.027 -1.266,3.695 -2.883,3.73 -1.621,0.035 -2.953,-1.578 -2.988,-3.605 -0.031,-2.028 1.254,-3.704 2.871,-3.75 1.617,-0.047 2.961,1.558 3,3.585" style="fill:none;stroke:#3f4f75;stroke-width:1.725;stroke-linecap:round;stroke-linejoin:round;stroke-miterlimit:4;stroke-dasharray:none;stroke-opacity:1" id="path474"/></g></g><g id="g476"><g id="g478" clip-path="url(#clipPath482)"><g id="g484" transform="matrix(44.999999,0,0,-44.999999,386.85374,208.12942)"><image id="image490" width="1" height="1" mask="url(#mask486)" preserveAspectRatio="none" transform="matrix(1,0,0,-1,0,1)" xlink:href="../../../workflow_img5.png"/></g></g></g><g id="g492"><g id="g494" clip-path="url(#clipPath498)"><g id="g500" transform="matrix(44.999999,0,0,-44.999999,536.2421,208.12942)"><image id="image506" width="1" height="1" mask="url(#mask502)" preserveAspectRatio="none" transform="matrix(1,0,0,-1,0,1)" xlink:href="../../../workflow_img7.png"/></g></g></g><g id="g508"><g id="g510"><g id="g512"><path d="m 561.312,306.289 c 1.852,-1.648 1.844,-1.633 1.844,-1.633 m -11.461,-0.976 c 10.532,0.57 12.825,7.539 9.817,12.203 -1.719,2.668 -5.176,4.578 -9.817,4.101 m 12.071,-8.132 h 7.875 m -7.829,-7.981 v 16.356 m -22.027,-8.559 h 9.91 v -7.988 h 22.496 m -32.433,16.656 v -17.18" style="fill:none;stroke:url(#linearGradient518);stroke-width:3.525;stroke-linecap:round;stroke-linejoin:round;stroke-miterlimit:4;stroke-dasharray:none;stroke-opacity:1" id="path520"/></g></g><g id="g522"><g id="g538"><g id="g536" clip-path="url(#clipPath528)" opacity=".442"><g id="g534"><g id="g532"><path d="M 266.32,0.062 V 346.609" style="fill:none;stroke:#000;stroke-width:1.2735;stroke-linecap:butt;stroke-linejoin:miter;stroke-miterlimit:4;stroke-dasharray:15.282,1.2735;stroke-dashoffset:0;stroke-opacity:1" id="path530"/></g></g></g></g></g><g id="g540"><g id="g556"><g id="g554" clip-path="url(#clipPath546)" opacity=".449"><g id="g552"><g id="g550"><path d="M 634.914,0.086 V 346.605" style="fill:none;stroke:#000;stroke-width:1.3485;stroke-linecap:butt;stroke-linejoin:miter;stroke-miterlimit:4;stroke-dasharray:16.182,1.3485;stroke-dashoffset:0;stroke-opacity:1" id="path548"/></g></g></g></g></g><g id="g558"><path d="m 150.922,41.191 c 0,8.528 -6.91,15.442 -15.438,15.442 -8.527,0 -15.441,-6.914 -15.441,-15.442 0,-8.523 6.914,-15.437 15.441,-15.437 8.528,0 15.438,6.914 15.438,15.437 z" style="fill:none;stroke:#04aaff;stroke-width:6.77083;stroke-linecap:round;stroke-linejoin:miter;stroke-miterlimit:4;stroke-dasharray:none;stroke-opacity:1" id="path560"/></g><text transform="translate(129.2318,47.964538)" style="font-variant:normal;font-weight:400;font-size:20.8691px;font-family:Cousine;-inkscape-font-specification:Cousine;writing-mode:lr-tb;fill:#000;fill-opacity:1;fill-rule:nonzero;stroke:none" id="text564"><tspan id="tspan562" x="0" y="0">1</tspan></text><g id="g566"><path d="m 466.059,41.191 c 0,8.528 -6.914,15.442 -15.442,15.442 -8.527,0 -15.441,-6.914 -15.441,-15.442 0,-8.523 6.914,-15.437 15.441,-15.437 8.528,0 15.442,6.914 15.442,15.437 z" style="fill:none;stroke:#04aaff;stroke-width:6.77083;stroke-linecap:round;stroke-linejoin:miter;stroke-miterlimit:4;stroke-dasharray:none;stroke-opacity:1" id="path568"/></g><text transform="translate(444.36551,47.964538)" style="font-variant:normal;font-weight:400;font-size:20.8691px;font-family:Cousine;-inkscape-font-specification:Cousine;writing-mode:lr-tb;fill:#000;fill-opacity:1;fill-rule:nonzero;stroke:none" id="text572"><tspan id="tspan570" x="0" y="0">2</tspan></text><g id="g574"><path d="m 719.363,41.191 c 0,8.528 -6.91,15.442 -15.437,15.442 -8.528,0 -15.442,-6.914 -15.442,-15.442 0,-8.523 6.914,-15.437 15.442,-15.437 8.527,0 15.437,6.914 15.437,15.437 z" style="fill:none;stroke:#04aaff;stroke-width:6.77083;stroke-linecap:round;stroke-linejoin:miter;stroke-miterlimit:4;stroke-dasharray:none;stroke-opacity:1" id="path576"/></g><text transform="translate(697.6726,47.964538)" style="font-variant:normal;font-weight:400;font-size:20.8691px;font-family:Cousine;-inkscape-font-specification:Cousine;writing-mode:lr-tb;fill:#000;fill-opacity:1;fill-rule:nonzero;stroke:none" id="text580"><tspan id="tspan578" x="0" y="0">3</tspan></text></g></g></svg>